<svg width="64" height="64" viewBox="0 0 64 64" fill="none" xmlns="http://www.w3.org/2000/svg">
<path d="M57.997 51.039H55.154V29.606L43.686 21.956L38.101 24.818V19.439L23.711 11L10.016 19.454V51.039H6.003C5.449 51.039 5 51.478 5 52.02C5 52.561 5.449 53 6.003 53H10.016H28.908H29.911H55.155H57.998C58.551 53 59 52.561 59 52.02C59 51.478 58.551 51.039 57.997 51.039ZM12.021 26.023L22.721 20.623V24.341L12.021 29.775V26.023ZM53.148 39.344L44.622 36.83V31.781L53.148 35.882V39.344ZM28.908 29.531V32.318L24.728 30.6V26.38L29.916 29.014L28.908 29.531ZM22.722 30.738L12.022 35.134V31.984L22.722 26.55V30.738ZM22.722 32.865V37.254L12.022 40.625V37.262L22.722 32.865ZM24.728 32.728L28.908 34.446V38.656L24.728 37.266V32.728ZM30.914 36.535L42.616 31.709V36.85L30.914 40.617V36.535ZM42.616 29.581L30.914 34.407V30.718L42.616 24.72V29.581ZM32.08 27.905L24.727 24.171V20.697L35.005 26.405L32.08 27.905ZM12.021 42.684L22.721 39.313V43.569L12.021 46.114V42.684ZM24.728 39.336L28.908 40.726V45.064L24.728 43.643V39.336ZM30.914 42.68L42.616 38.914V44.018L30.914 46.18V42.68ZM44.622 38.878L53.148 41.392V45.297L44.622 43.991V38.878ZM53.148 33.696L44.622 29.596V24.954L53.148 30.642V33.696ZM36.096 24.755L24.728 18.442V13.881L36.096 20.548V24.755ZM22.722 13.93V18.416L12.022 23.815V20.534L22.722 13.93ZM12.021 48.133L22.721 45.588V51.04H12.021V48.133ZM24.728 51.039V45.719L28.908 47.14V51.038H24.728V51.039ZM30.914 48.175L42.616 46.013V51.039H30.914V48.175ZM44.622 51.039V45.976L53.148 47.282V51.039H44.622Z" fill="#EA161B"/>
</svg>
