<svg width="64" height="64" viewBox="0 0 64 64" fill="none" xmlns="http://www.w3.org/2000/svg">
<path d="M32 30C31.2089 30 30.4355 30.2346 29.7777 30.6741C29.1199 31.1136 28.6072 31.7384 28.3045 32.4693C28.0017 33.2002 27.9225 34.0044 28.0769 34.7804C28.2312 35.5563 28.6122 36.269 29.1716 36.8284C29.731 37.3878 30.4437 37.7688 31.2196 37.9231C31.9956 38.0775 32.7998 37.9983 33.5307 37.6955C34.2616 37.3928 34.8864 36.8801 35.3259 36.2223C35.7654 35.5645 36 34.7911 36 34C36 32.9391 35.5786 31.9217 34.8284 31.1716C34.0783 30.4214 33.0609 30 32 30ZM32 36C31.6044 36 31.2178 35.8827 30.8889 35.6629C30.56 35.4432 30.3036 35.1308 30.1522 34.7654C30.0009 34.3999 29.9613 33.9978 30.0384 33.6098C30.1156 33.2219 30.3061 32.8655 30.5858 32.5858C30.8655 32.3061 31.2219 32.1156 31.6098 32.0384C31.9978 31.9613 32.3999 32.0009 32.7654 32.1522C33.1308 32.3036 33.4432 32.56 33.6629 32.8889C33.8827 33.2178 34 33.6044 34 34C34 34.5304 33.7893 35.0391 33.4142 35.4142C33.0391 35.7893 32.5304 36 32 36ZM12 37C11.2044 37 10.4413 37.3161 9.87868 37.8787C9.31607 38.4413 9 39.2044 9 40V42C9 42.2652 9.10536 42.5196 9.29289 42.7071C9.48043 42.8946 9.73478 43 10 43H14C14.2652 43 14.5196 42.8946 14.7071 42.7071C14.8946 42.5196 15 42.2652 15 42V40C15 39.2044 14.6839 38.4413 14.1213 37.8787C13.5587 37.3161 12.7956 37 12 37ZM13 41H11V40C11 39.7348 11.1054 39.4804 11.2929 39.2929C11.4804 39.1054 11.7348 39 12 39C12.2652 39 12.5196 39.1054 12.7071 39.2929C12.8946 39.4804 13 39.7348 13 40V41ZM12 45C11.2044 45 10.4413 45.3161 9.87868 45.8787C9.31607 46.4413 9 47.2044 9 48V50C9 50.2652 9.10536 50.5196 9.29289 50.7071C9.48043 50.8946 9.73478 51 10 51H14C14.2652 51 14.5196 50.8946 14.7071 50.7071C14.8946 50.5196 15 50.2652 15 50V48C15 47.2044 14.6839 46.4413 14.1213 45.8787C13.5587 45.3161 12.7956 45 12 45ZM13 49H11V48C11 47.7348 11.1054 47.4804 11.2929 47.2929C11.4804 47.1054 11.7348 47 12 47C12.2652 47 12.5196 47.1054 12.7071 47.2929C12.8946 47.4804 13 47.7348 13 48V49Z" fill="#EA161B"/>
<path d="M61.258 31.034L47 27.232V24H52C52.2186 23.9999 52.4311 23.9282 52.6051 23.7959C52.7791 23.6636 52.9049 23.4779 52.9633 23.2672C53.0217 23.0566 53.0095 22.8326 52.9286 22.6296C52.8476 22.4266 52.7023 22.2556 52.515 22.143L33 10.434V8H37V9C37 9.26522 37.1054 9.51957 37.2929 9.70711C37.4804 9.89464 37.7348 10 38 10H42C42.2652 10 42.5196 9.89464 42.7071 9.70711C42.8946 9.51957 43 9.26522 43 9V5C43 4.73478 42.8946 4.48043 42.7071 4.29289C42.5196 4.10536 42.2652 4 42 4H39V3C39 2.73478 38.8946 2.48043 38.7071 2.29289C38.5196 2.10536 38.2652 2 38 2H32C31.7348 2 31.4804 2.10536 31.2929 2.29289C31.1054 2.48043 31 2.73478 31 3V10.434L11.485 22.143C11.2977 22.2556 11.1524 22.4266 11.0714 22.6296C10.9905 22.8326 10.9783 23.0566 11.0367 23.2672C11.0951 23.4779 11.2209 23.6636 11.3949 23.7959C11.5689 23.9282 11.7814 23.9999 12 24H17V27.232L2.742 31.032C2.52887 31.0889 2.34054 31.2147 2.20634 31.3898C2.07214 31.5649 1.99959 31.7794 2 32V36C2 36.2652 2.10536 36.5196 2.29289 36.7071C2.48043 36.8946 2.73479 37 3 37C3.08712 37.0001 3.17387 36.9886 3.258 36.966L5 36.5V56H3C2.73479 56 2.48043 56.1054 2.29289 56.2929C2.10536 56.4804 2 56.7348 2 57V61C2 61.2652 2.10536 61.5196 2.29289 61.7071C2.48043 61.8946 2.73479 62 3 62H61C61.2652 62 61.5196 61.8946 61.7071 61.7071C61.8946 61.5196 62 61.2652 62 61V57C62 56.7348 61.8946 56.4804 61.7071 56.2929C61.5196 56.1054 61.2652 56 61 56H59V36.5L60.742 36.964C60.8901 37.0035 61.0453 37.0085 61.1957 36.9785C61.346 36.9485 61.4874 36.8844 61.609 36.791C61.7303 36.6978 61.8287 36.5781 61.8965 36.441C61.9642 36.3038 61.9997 36.153 62 36V32C62 31.7797 61.9272 31.5657 61.7931 31.391C61.6589 31.2163 61.4708 31.0908 61.258 31.034ZM45 56H41V46H42C42.1709 46.0009 42.3392 45.9581 42.4888 45.8755C42.6384 45.7929 42.7644 45.6733 42.8546 45.5282C42.9449 45.383 42.9965 45.2172 43.0044 45.0465C43.0123 44.8758 42.9764 44.7059 42.9 44.553L40.9 40.553C40.8166 40.386 40.688 40.2457 40.529 40.148C40.3699 40.0502 40.1867 39.999 40 40H24C23.8142 39.9999 23.632 40.0516 23.4739 40.1493C23.3158 40.247 23.1881 40.3868 23.105 40.553L21.105 44.553C21.0288 44.7055 20.9928 44.8749 21.0006 45.0452C21.0083 45.2155 21.0594 45.381 21.1491 45.526C21.2387 45.671 21.364 45.7907 21.5129 45.8736C21.6619 45.9566 21.8295 46.0001 22 46H23V56H19V28H45V56ZM33 56H31V51C31 50.7348 31.1054 50.4804 31.2929 50.2929C31.4804 50.1054 31.7348 50 32 50C32.2652 50 32.5196 50.1054 32.7071 50.2929C32.8946 50.4804 33 50.7348 33 51V56ZM32 48C31.2044 48 30.4413 48.3161 29.8787 48.8787C29.3161 49.4413 29 50.2043 29 51V56H25V46H39V56H35V51C35 50.2043 34.6839 49.4413 34.1213 48.8787C33.5587 48.3161 32.7957 48 32 48ZM23.618 44L24.618 42H39.382L40.382 44H23.618ZM41 6V8H39V6H41ZM37 5V6H33V4H37V5ZM32 12.166L48.39 22H15.61L32 12.166ZM45 24V26H19V24H45ZM4 32.768L17 29.3V31.23L4 34.7V32.768ZM7 35.968L17 33.3V56H7V35.968ZM60 60H4V58H60V60ZM57 56H47V33.3L57 35.966V56ZM60 34.7L47 31.232V29.3L60 32.766V34.7Z" fill="#EA161B"/>
<path d="M50 43H54C54.2652 43 54.5196 42.8946 54.7071 42.7071C54.8946 42.5196 55 42.2652 55 42V40C55 39.2044 54.6839 38.4413 54.1213 37.8787C53.5587 37.3161 52.7956 37 52 37C51.2044 37 50.4413 37.3161 49.8787 37.8787C49.3161 38.4413 49 39.2044 49 40V42C49 42.2652 49.1054 42.5196 49.2929 42.7071C49.4804 42.8946 49.7348 43 50 43ZM51 40C51 39.7348 51.1054 39.4804 51.2929 39.2929C51.4804 39.1054 51.7348 39 52 39C52.2652 39 52.5196 39.1054 52.7071 39.2929C52.8946 39.4804 53 39.7348 53 40V41H51V40ZM50 51H54C54.2652 51 54.5196 50.8946 54.7071 50.7071C54.8946 50.5196 55 50.2652 55 50V48C55 47.2044 54.6839 46.4413 54.1213 45.8787C53.5587 45.3161 52.7956 45 52 45C51.2044 45 50.4413 45.3161 49.8787 45.8787C49.3161 46.4413 49 47.2044 49 48V50C49 50.2652 49.1054 50.5196 49.2929 50.7071C49.4804 50.8946 49.7348 51 50 51ZM51 48C51 47.7348 51.1054 47.4804 51.2929 47.2929C51.4804 47.1054 51.7348 47 52 47C52.2652 47 52.5196 47.1054 52.7071 47.2929C52.8946 47.4804 53 47.7348 53 48V49H51V48Z" fill="#EA161B"/>
</svg>
