<svg width="64" height="64" viewBox="0 0 64 64" fill="none" xmlns="http://www.w3.org/2000/svg">
<path d="M59 58H5C3.346 58 2 56.654 2 55V43C2 42.7348 2.10536 42.4804 2.29289 42.2929C2.48043 42.1054 2.73478 42 3 42C3.26522 42 3.51957 42.1054 3.70711 42.2929C3.89464 42.4804 4 42.7348 4 43V55C4 55.55 4.45 56 5 56H59C59.55 56 60 55.55 60 55V43C60 42.7348 60.1054 42.4804 60.2929 42.2929C60.4804 42.1054 60.7348 42 61 42C61.2652 42 61.5196 42.1054 61.7071 42.2929C61.8946 42.4804 62 42.7348 62 43V55C62 56.654 60.654 58 59 58ZM43 12C42.7348 12 42.4804 11.8946 42.2929 11.7071C42.1054 11.5196 42 11.2652 42 11V7C42 6.45 41.55 6 41 6H23C22.45 6 22 6.45 22 7V11C22 11.2652 21.8946 11.5196 21.7071 11.7071C21.5196 11.8946 21.2652 12 21 12C20.7348 12 20.4804 11.8946 20.2929 11.7071C20.1054 11.5196 20 11.2652 20 11V7C20 5.346 21.346 4 23 4H41C42.654 4 44 5.346 44 7V11C44 11.2652 43.8946 11.5196 43.7071 11.7071C43.5196 11.8946 43.2652 12 43 12ZM55 42H51C50.7348 42 50.4804 41.8946 50.2929 41.7071C50.1054 41.5196 50 41.2652 50 41C50 40.7348 50.1054 40.4804 50.2929 40.2929C50.4804 40.1054 50.7348 40 51 40H55C57.758 40 60 37.758 60 35V16H7C6.73478 16 6.48043 15.8946 6.29289 15.7071C6.10536 15.5196 6 15.2652 6 15C6 14.7348 6.10536 14.4804 6.29289 14.2929C6.48043 14.1054 6.73478 14 7 14H61C61.2652 14 61.5196 14.1054 61.7071 14.2929C61.8946 14.4804 62 14.7348 62 15V35C62 38.86 58.86 42 55 42Z" fill="#EA161B"/>
<path d="M13 42H9C5.14 42 2 38.86 2 35V15C2 14.7348 2.10536 14.4804 2.29289 14.2929C2.48043 14.1054 2.73478 14 3 14C3.26522 14 3.51957 14.1054 3.70711 14.2929C3.89464 14.4804 4 14.7348 4 15V35C4 37.758 6.242 40 9 40H13C13.2652 40 13.5196 40.1054 13.7071 40.2929C13.8946 40.4804 14 40.7348 14 41C14 41.2652 13.8946 41.5196 13.7071 41.7071C13.5196 41.8946 13.2652 42 13 42ZM39 42H25C24.7348 42 24.4804 41.8946 24.2929 41.7071C24.1054 41.5196 24 41.2652 24 41C24 40.7348 24.1054 40.4804 24.2929 40.2929C24.4804 40.1054 24.7348 40 25 40H39C39.2652 40 39.5196 40.1054 39.7071 40.2929C39.8946 40.4804 40 40.7348 40 41C40 41.2652 39.8946 41.5196 39.7071 41.7071C39.5196 41.8946 39.2652 42 39 42ZM19 46C17.346 46 16 44.654 16 43V37C16 36.7348 16.1054 36.4804 16.2929 36.2929C16.4804 36.1054 16.7348 36 17 36H21C21.2652 36 21.5196 36.1054 21.7071 36.2929C21.8946 36.4804 22 36.7348 22 37V43C22 44.654 20.654 46 19 46ZM18 38V43C18 43.55 18.45 44 19 44C19.55 44 20 43.55 20 43V38H18ZM45 46C43.346 46 42 44.654 42 43V37C42 36.7348 42.1054 36.4804 42.2929 36.2929C42.4804 36.1054 42.7348 36 43 36H47C47.2652 36 47.5196 36.1054 47.7071 36.2929C47.8946 36.4804 48 36.7348 48 37V43C48 44.654 46.654 46 45 46ZM44 38V43C44 43.55 44.45 44 45 44C45.55 44 46 43.55 46 43V38H44Z" fill="#EA161B"/>
</svg>
