<svg width="64" height="64" viewBox="0 0 64 64" fill="none" xmlns="http://www.w3.org/2000/svg">
<g clip-path="url(#clip0_135_2663)">
<path d="M62.4654 19.505C63.0004 19.505 63.4344 19.071 63.4344 18.535V11.93C63.4344 11.394 63.0004 10.96 62.4654 10.96H42.2404V8.548H43.6854C44.2204 8.548 44.6544 8.113 44.6544 7.578V0.97C44.6544 0.434 44.2204 0 43.6854 0H20.3144C19.7794 0 19.3434 0.434 19.3434 0.97V7.579C19.3434 8.114 19.7794 8.549 20.3144 8.549H21.7614V10.961H1.53641C1.00141 10.961 0.566406 11.395 0.566406 11.931V18.536C0.566406 19.072 1.00141 19.506 1.53641 19.506H4.19341V55.448H1.53641C1.00141 55.448 0.566406 55.882 0.566406 56.418V63.023C0.566406 63.559 1.00141 63.993 1.53641 63.993H22.6944C22.7074 63.993 22.7184 64.001 22.7314 64.001H41.2704C41.2844 64.001 41.2954 63.994 41.3094 63.993H62.4654C63.0004 63.993 63.4344 63.559 63.4344 63.023V56.418C63.4344 55.882 63.0004 55.448 62.4654 55.448H59.8074V19.505H62.4654ZM21.2834 6.609V1.939H42.7174V6.608H41.2794C41.2774 6.608 41.2734 6.606 41.2694 6.606C41.2674 6.606 41.2634 6.608 41.2614 6.608H22.7414C22.7384 6.608 22.7344 6.606 22.7314 6.606C22.7284 6.606 22.7254 6.608 22.7224 6.608H21.2834V6.609ZM42.2404 19.505H57.8674V55.447H42.2404V19.505ZM40.3014 11.958V18.507C40.3014 18.517 40.2954 18.525 40.2954 18.535C40.2954 18.545 40.3014 18.554 40.3014 18.563V55.447H36.4324V46.494C36.4324 45.959 35.9984 45.525 35.4634 45.525H28.5384C28.0024 45.525 27.5684 45.959 27.5684 46.494V55.447H23.7014V18.554C23.7014 18.547 23.7054 18.542 23.7054 18.535C23.7054 18.529 23.7014 18.523 23.7014 18.516V11.948C23.7014 11.942 23.7054 11.936 23.7054 11.929C23.7054 11.922 23.7014 11.917 23.7014 11.91V8.548H40.3014V11.902C40.3014 11.912 40.2954 11.92 40.2954 11.93C40.2954 11.94 40.3014 11.948 40.3014 11.958ZM34.4924 47.464V55.447H29.5084V47.464H34.4924ZM2.50641 17.565V12.9H21.7624V17.566L2.50641 17.565ZM21.7624 19.505V55.447H6.13341V19.505H21.7624ZM61.4944 57.387V62.053H41.2814C41.2774 62.053 41.2754 62.051 41.2694 62.051C41.2534 62.051 41.2384 62.06 41.2204 62.061H22.8304C22.8174 62.06 22.8064 62.066 22.7944 62.065C22.7734 62.064 22.7554 62.053 22.7344 62.053H2.50641V57.387H5.16041C5.16141 57.387 5.16241 57.387 5.16241 57.387C5.16441 57.387 5.16441 57.387 5.16541 57.387H28.5384H35.4634H58.8344C58.8364 57.387 58.8364 57.387 58.8384 57.387C58.8384 57.387 58.8384 57.387 58.8404 57.387H61.4944ZM42.2404 17.565V12.9H61.4944V17.566L42.2404 17.565Z" fill="#EA161B"/>
<path d="M36.8368 12.808H27.1658C26.6298 12.808 26.1958 13.242 26.1958 13.778C26.1958 14.314 26.6298 14.748 27.1658 14.748H36.8368C37.3718 14.748 37.8058 14.314 37.8058 13.778C37.8058 13.242 37.3718 12.808 36.8368 12.808ZM36.8368 18.288H27.1658C26.6298 18.288 26.1958 18.722 26.1958 19.258C26.1958 19.794 26.6298 20.228 27.1658 20.228H36.8368C37.3718 20.228 37.8058 19.794 37.8058 19.258C37.8058 18.722 37.3718 18.288 36.8368 18.288ZM36.8368 23.768H27.1658C26.6298 23.768 26.1958 24.202 26.1958 24.738C26.1958 25.274 26.6298 25.708 27.1658 25.708H36.8368C37.3718 25.708 37.8058 25.274 37.8058 24.738C37.8058 24.202 37.3718 23.768 36.8368 23.768ZM36.8368 29.248H27.1658C26.6298 29.248 26.1958 29.683 26.1958 30.218C26.1958 30.754 26.6298 31.188 27.1658 31.188H36.8368C37.3718 31.188 37.8058 30.754 37.8058 30.218C37.8058 29.683 37.3718 29.248 36.8368 29.248ZM36.8368 34.729H27.1658C26.6298 34.729 26.1958 35.163 26.1958 35.699C26.1958 36.234 26.6298 36.668 27.1658 36.668H36.8368C37.3718 36.668 37.8058 36.234 37.8058 35.699C37.8058 35.163 37.3718 34.729 36.8368 34.729ZM10.6048 27.487H17.2918C17.8268 27.487 18.2608 27.053 18.2608 26.517C18.2608 25.981 17.8268 25.547 17.2918 25.547H10.6048C10.0688 25.547 9.63477 25.981 9.63477 26.517C9.63477 27.053 10.0688 27.487 10.6048 27.487ZM10.6048 32.968H17.2918C17.8268 32.968 18.2608 32.534 18.2608 31.998C18.2608 31.463 17.8268 31.028 17.2918 31.028H10.6048C10.0688 31.028 9.63477 31.463 9.63477 31.998C9.63577 32.534 10.0688 32.968 10.6048 32.968ZM10.6048 38.448H17.2918C17.8268 38.448 18.2608 38.013 18.2608 37.478C18.2608 36.942 17.8268 36.508 17.2918 36.508H10.6048C10.0688 36.508 9.63477 36.942 9.63477 37.478C9.63577 38.014 10.0688 38.448 10.6048 38.448ZM10.6048 43.929H17.2918C17.8268 43.929 18.2608 43.494 18.2608 42.959C18.2608 42.423 17.8268 41.989 17.2918 41.989H10.6048C10.0688 41.989 9.63477 42.423 9.63477 42.959C9.63577 43.494 10.0688 43.929 10.6048 43.929ZM10.6048 49.409H17.2918C17.8268 49.409 18.2608 48.975 18.2608 48.439C18.2608 47.903 17.8268 47.469 17.2918 47.469H10.6048C10.0688 47.469 9.63477 47.903 9.63477 48.439C9.63477 48.975 10.0688 49.409 10.6048 49.409ZM53.3968 25.548H46.7088C46.1738 25.548 45.7398 25.982 45.7398 26.518C45.7398 27.054 46.1738 27.488 46.7088 27.488H53.3968C53.9318 27.488 54.3658 27.054 54.3658 26.518C54.3658 25.982 53.9328 25.548 53.3968 25.548ZM53.3968 31.028H46.7088C46.1738 31.028 45.7398 31.463 45.7398 31.998C45.7398 32.534 46.1738 32.968 46.7088 32.968H53.3968C53.9318 32.968 54.3658 32.534 54.3658 31.998C54.3658 31.463 53.9328 31.028 53.3968 31.028ZM53.3968 36.509H46.7088C46.1738 36.509 45.7398 36.943 45.7398 37.479C45.7398 38.014 46.1738 38.449 46.7088 38.449H53.3968C53.9318 38.449 54.3658 38.014 54.3658 37.479C54.3658 36.943 53.9328 36.509 53.3968 36.509ZM53.3968 41.989H46.7088C46.1738 41.989 45.7398 42.423 45.7398 42.959C45.7398 43.494 46.1738 43.929 46.7088 43.929H53.3968C53.9318 43.929 54.3658 43.494 54.3658 42.959C54.3658 42.423 53.9328 41.989 53.3968 41.989ZM53.3968 47.469H46.7088C46.1738 47.469 45.7398 47.903 45.7398 48.439C45.7398 48.975 46.1738 49.409 46.7088 49.409H53.3968C53.9318 49.409 54.3658 48.975 54.3658 48.439C54.3658 47.903 53.9328 47.469 53.3968 47.469Z" fill="#EA161B"/>
</g>
<defs>
<clipPath id="clip0_135_2663">
<rect width="64" height="64" fill="white"/>
</clipPath>
</defs>
</svg>
