<svg width="64" height="64" viewBox="0 0 64 64" fill="none" xmlns="http://www.w3.org/2000/svg">
<path fill-rule="evenodd" clip-rule="evenodd" d="M28.3404 7.98612C28.335 7.98607 28.3297 7.98607 28.3244 7.98612C28.2907 7.99108 28.2573 7.99777 28.2244 8.00614C28.1404 8.01901 28.0584 8.04248 27.9804 8.07608L4.85635 17.9661C4.70218 17.9919 4.5562 18.0534 4.43012 18.1458C4.30403 18.2382 4.20136 18.3588 4.13035 18.4981C4.12761 18.5047 4.12495 18.5114 4.12235 18.5181C4.00904 18.7256 3.9729 18.9664 4.02035 19.198V48.9702C4.02052 49.011 4.0232 49.0516 4.02835 49.0921C4.02829 49.0987 4.02829 49.1054 4.02835 49.1121C4.0317 49.1329 4.0357 49.1536 4.04035 49.1741C4.06914 49.3406 4.13963 49.4971 4.24526 49.6289C4.35088 49.7608 4.48818 49.8636 4.64435 49.928L27.9804 59.9082C28.0919 59.956 28.2111 59.983 28.3324 59.9881C28.347 59.9884 28.3617 59.9884 28.3764 59.9881C28.3777 59.9881 28.379 59.9881 28.3804 59.9881C28.3904 59.9882 28.4004 59.9882 28.4104 59.9881C28.4237 59.9883 28.437 59.9883 28.4504 59.9881C28.471 59.9887 28.4917 59.9887 28.5124 59.9881C28.6142 59.9787 28.7141 59.9538 28.8084 59.9141L41.5004 54.4842C42.4635 56.1581 43.8504 57.549 45.5215 58.5169C47.1926 59.4848 49.0891 59.9956 51.0204 59.9981C57.0844 59.9981 62.0204 55.0621 62.0204 48.9981C62.0204 43.5321 58.0044 38.998 52.7704 38.156V19.2681C52.8098 19.1211 52.8152 18.967 52.786 18.8177C52.7569 18.6683 52.6941 18.5275 52.6024 18.406C52.5254 18.2904 52.4251 18.1922 52.3081 18.1175C52.191 18.0427 52.0596 17.9934 51.9224 17.9722L28.8084 8.08414C28.7254 8.04782 28.638 8.02295 28.5484 8.01016C28.539 8.01003 28.5297 8.01003 28.5204 8.01016C28.4957 8.00925 28.471 8.00925 28.4464 8.01016C28.411 8.00829 28.3757 8.00829 28.3404 8.01016V7.98612ZM28.3944 10.0722L33.2984 12.1662L12.5184 21.052C12.4994 21.0608 12.4807 21.0702 12.4624 21.0801L7.55435 18.9822L28.3944 10.0722ZM35.8444 13.2561L41.7904 15.7981L20.6224 24.8501C20.4199 24.936 20.2515 25.0861 20.143 25.2774C20.0345 25.4686 19.9921 25.6905 20.0224 25.9082C20.0207 25.9342 20.02 25.9601 20.0203 25.9861V36.6822L17.8524 33.4302C17.7172 33.2272 17.5124 33.0805 17.2767 33.0179C17.041 32.9552 16.7905 32.9809 16.5724 33.0901L14.0203 34.364V22.5882L35.8444 13.2561ZM44.3284 16.8841L49.2344 18.9822L28.3944 27.896L23.4944 25.7981L44.2704 16.9121C44.2907 16.9035 44.3107 16.8941 44.3304 16.8841H44.3284ZM6.02035 20.5042L12.0203 23.0681V35.9861C12.0205 36.1564 12.0642 36.3238 12.1471 36.4724C12.2301 36.6211 12.3497 36.7462 12.4945 36.8357C12.6393 36.9253 12.8046 36.9764 12.9746 36.9842C13.1447 36.9919 13.314 36.9561 13.4664 36.8802L16.6764 35.2742L20.1324 40.458C20.225 40.6378 20.37 40.7854 20.5481 40.8811C20.7263 40.9768 20.9293 41.0162 21.1304 40.9942C21.1653 40.9893 21.2001 40.9827 21.2344 40.9742C21.245 40.9743 21.2557 40.9743 21.2664 40.9742C21.2886 40.9682 21.3106 40.9616 21.3324 40.9541C21.4271 40.9236 21.5168 40.879 21.5984 40.8221C21.7487 40.7174 21.8673 40.5736 21.9414 40.406C22.0154 40.2385 22.0421 40.0537 22.0184 39.8721V27.3482L27.3944 29.646V57.4781L6.02035 48.334V20.51V20.5042ZM50.7704 20.5042V37.9981C48.3298 38.0575 45.9782 38.9263 44.0851 40.4678C42.1921 42.0093 40.865 44.1363 40.3124 46.5142L37.8484 47.5642L32.0164 50.0601C31.7724 50.1641 31.5797 50.3607 31.4806 50.6067C31.3816 50.8528 31.3844 51.1281 31.4884 51.3721C31.5923 51.6161 31.789 51.8087 32.035 51.9077C32.281 52.0068 32.5564 52.0041 32.8004 51.9002L38.6324 49.4041L40.0284 48.8101C40.0284 48.8681 40.0204 48.9261 40.0204 48.9861C40.0204 50.2741 40.2564 51.5061 40.6644 52.6541L29.3944 57.4742V29.6421L50.7704 20.5042ZM51.0204 39.9842C56.0024 39.9842 60.0204 44.0042 60.0204 48.9842C60.0204 53.9682 56.0024 57.9842 51.0204 57.9842C49.8379 57.9863 48.6666 57.7548 47.5737 57.3033C46.4808 56.8517 45.4878 56.189 44.6517 55.3528C43.8155 54.5167 43.1527 53.5236 42.7011 52.4307C42.2496 51.3378 42.0182 50.1666 42.0204 48.9842C42.0204 44.0042 46.0384 39.9842 51.0204 39.9842ZM38.2084 43.49C38.084 43.496 37.962 43.5254 37.8484 43.5762L32.0164 46.0721C31.8879 46.118 31.7703 46.1897 31.6706 46.2827C31.5709 46.3758 31.4913 46.4883 31.4367 46.6133C31.3821 46.7383 31.3537 46.8732 31.3531 47.0096C31.3525 47.1459 31.3799 47.2811 31.4334 47.4065C31.487 47.532 31.5656 47.6449 31.6645 47.7388C31.7634 47.8327 31.8805 47.9054 32.0085 47.9524C32.1366 47.9994 32.2729 48.0199 32.409 48.0122C32.5452 48.0046 32.6784 47.9692 32.8004 47.9082L38.6324 45.416C38.8515 45.3275 39.0322 45.1642 39.1425 44.9551C39.2527 44.746 39.2853 44.5048 39.2345 44.274C39.1836 44.0431 39.0527 43.8376 38.8649 43.6941C38.677 43.5506 38.4444 43.4783 38.2084 43.49ZM56.9684 44.5201C56.7419 44.5193 56.5219 44.5955 56.3444 44.7361L48.5864 50.656L45.9724 47.4561C45.8047 47.2505 45.5623 47.1201 45.2985 47.0933C45.0346 47.0665 44.7709 47.1454 44.5654 47.313C44.3598 47.4806 44.2293 47.7232 44.2025 47.9871C44.1756 48.251 44.2547 48.5147 44.4224 48.7202L48.2624 53.4202L57.5584 46.3262C57.7281 46.2016 57.8541 46.0264 57.9185 45.826C57.9829 45.6255 57.9824 45.4097 57.917 45.2095C57.8516 45.0093 57.7247 44.835 57.5544 44.7112C57.384 44.5874 57.1789 44.5205 56.9684 44.5201Z" fill="#EA161B"/>
</svg>
