<svg width="64" height="64" viewBox="0 0 64 64" fill="none" xmlns="http://www.w3.org/2000/svg">
<path d="M9.00022 34.86C9.98594 34.865 10.9354 34.4888 11.6502 33.81L11.9602 33.51V54C11.9602 55.5913 12.5924 57.1174 13.7176 58.2427C14.8428 59.3679 16.3689 60 17.9602 60H46.0002C47.5915 60 49.1176 59.3679 50.2429 58.2427C51.3681 57.1174 52.0002 55.5913 52.0002 54V33.51L52.3102 33.81C53.0363 34.4985 54.0019 34.8772 55.0024 34.866C56.0029 34.8548 56.9597 34.4546 57.6702 33.75C58.0307 33.3901 58.3158 32.9619 58.5088 32.4905C58.7018 32.0191 58.7988 31.5139 58.7941 31.0045C58.7895 30.4951 58.6832 29.9918 58.4817 29.524C58.2801 29.0562 57.9872 28.6333 57.6202 28.28L32.7002 4.28001C32.5138 4.09977 32.2646 3.99902 32.0052 3.99902C31.7459 3.99902 31.4967 4.09977 31.3102 4.28001L6.39022 28.28C5.84595 28.8075 5.4704 29.4845 5.31112 30.2255C5.15184 30.9665 5.21598 31.7381 5.49543 32.4426C5.77488 33.1471 6.25707 33.7528 6.88096 34.1832C7.50485 34.6135 8.24239 34.8491 9.00022 34.86ZM28.0002 58V45H36.0002V58H28.0002ZM50.0002 54C50.0002 55.0609 49.5788 56.0783 48.8286 56.8284C48.0785 57.5786 47.0611 58 46.0002 58H38.0002V44C38.0002 43.7348 37.8949 43.4804 37.7073 43.2929C37.5198 43.1054 37.2654 43 37.0002 43H27.0002C26.735 43 26.4806 43.1054 26.2931 43.2929C26.1056 43.4804 26.0002 43.7348 26.0002 44V58H18.0002C16.9394 58 15.9219 57.5786 15.1718 56.8284C14.4216 56.0783 14.0002 55.0609 14.0002 54V31.6L32.0002 14.38L50.0002 31.6V54ZM7.77022 29.72L32.0002 6.39001L56.2302 29.72C56.405 29.8905 56.5439 30.0942 56.6387 30.3192C56.7336 30.5442 56.7824 30.7859 56.7824 31.03C56.7824 31.2742 56.7336 31.5158 56.6387 31.7408C56.5439 31.9658 56.405 32.1695 56.2302 32.34C55.887 32.6724 55.428 32.8582 54.9502 32.8582C54.4725 32.8582 54.0134 32.6724 53.6702 32.34L32.6702 12.25C32.4842 12.0727 32.2372 11.9738 31.9802 11.9738C31.7233 11.9738 31.4762 12.0727 31.2902 12.25L10.2902 32.34C9.947 32.6724 9.48798 32.8582 9.01022 32.8582C8.53246 32.8582 8.07343 32.6724 7.73022 32.34C7.55697 32.1697 7.41937 31.9666 7.32544 31.7425C7.23151 31.5185 7.18313 31.278 7.18313 31.035C7.18313 30.7921 7.23151 30.5515 7.32544 30.3275C7.41937 30.1034 7.55697 29.9003 7.73022 29.73L7.77022 29.72Z" fill="#EA161B"/>
</svg>
