<svg width="64" height="64" viewBox="0 0 64 64" fill="none" xmlns="http://www.w3.org/2000/svg">
<path d="M32.2213 54.7213L3.00788 54.718C2.87731 54.7146 2.75642 54.7008 2.63608 54.6461L2.59441 54.626C1.64335 54.1773 1.94706 53.0331 2.90146 52.8185C3.14582 52.7635 3.4439 52.7935 3.69506 52.7932L5.22547 52.793L5.18241 34.2645C4.27937 34.5742 2.20107 34.7 1.37566 34.3167C0.7141 34.0095 -0.0334305 33.225 0.380854 32.4532C0.897436 31.4908 2.26958 30.4868 3.09161 29.788L5.44543 27.8051L12.1676 22.7992L16.5095 19.9083C18.0618 18.9826 20.1088 17.913 21.8643 17.3842L21.8627 17.3281C21.729 11.9231 26.7517 8.93267 31.6774 8.83476L31.8825 8.82251C36.5073 8.82017 41.6928 11.2897 42.1493 16.3975C42.1815 16.7575 42.162 17.1378 42.162 17.5C42.3154 17.5843 42.499 17.5992 42.6644 17.6582C46.7585 19.1187 49.918 21.3393 53.3985 23.8867L58.4382 27.6905L62.1529 30.7858C62.8735 31.4041 64.1015 32.2991 63.6178 33.4005C62.9615 34.8946 60.1432 34.7236 58.836 34.2702L58.8105 52.7792C58.95 52.8183 59.1404 52.7938 59.2855 52.7936L60.459 52.7922C60.6749 52.7922 60.9332 52.7665 61.1429 52.8221C62.3294 53.1363 62.2014 54.6631 60.9473 54.7105L32.2213 54.7213ZM32.0335 10.774C28.2442 10.7826 23.7474 12.8313 23.8038 17.172C23.8568 21.2555 27.5137 26.0162 30.7194 28.1842C31.1348 28.4651 31.5565 28.7355 32.033 28.8993C32.6637 28.7051 33.2314 28.2737 33.7555 27.881C36.9877 25.4587 41.3237 19.8342 40.0163 15.5371C39.0099 12.2294 35.2164 10.7735 32.0335 10.774ZM22.1335 19.3907C20.5288 20.0255 18.9539 20.7651 17.4635 21.638L11.9637 25.3662L3.5462 31.9532C3.25973 32.1865 2.90085 32.3948 2.64141 32.6536L4.27731 32.398C8.70945 31.497 12.8048 29.8918 16.8073 27.7882L19.6282 26.2501L23.9279 23.5518C23.1869 22.6618 22.4549 20.6991 22.2227 19.6088C22.208 19.54 22.2029 19.4116 22.1335 19.3907ZM41.8309 19.451C41.6014 20.4427 41.2839 21.347 40.8387 22.2643L40.1363 23.5976C41.771 24.7561 43.4817 25.7442 45.229 26.7188C50.1908 29.4863 54.3968 31.2594 59.8979 32.4535L61.3718 32.7351C60.7492 32.29 60.1929 31.7636 59.614 31.2642L57.2394 29.2802L51.4382 24.9107C49.1939 23.3 46.9332 21.6908 44.4383 20.4847C43.587 20.0732 42.7115 19.7845 41.8309 19.451ZM24.9873 25.2392L19.8935 28.34C17.1283 29.9072 14.2312 31.4236 11.237 32.5057L8.22548 33.429C7.8683 33.5248 7.48752 33.5877 7.13718 33.6961L7.18356 52.768C7.29418 52.852 23.8827 52.7845 25.2799 52.802L25.2858 44.0301C25.2865 42.933 25.2728 41.913 25.571 40.845C27.4052 34.277 36.7749 34.3696 38.4824 41.0047L38.6457 41.8755L38.7369 52.7878H56.843L56.841 33.7375L56.5158 33.6604C56.2787 33.6141 56.0432 33.531 55.8112 33.4633L54.3617 33.0163C49.1827 31.3427 43.5753 28.2752 39.0617 25.2642C37.7839 27.0746 34.6378 30.3985 32.3737 30.801C30.4184 31.1487 27.0164 27.8717 25.9033 26.4932L25.2678 25.6518C25.1729 25.5172 25.092 25.3657 24.9873 25.2392ZM32.0767 37.8894C29.7869 37.9036 27.8372 39.5461 27.3435 41.7641C27.2112 42.3585 27.241 42.9772 27.2409 43.5822L27.2389 52.7799L31.9947 52.7976L36.7995 52.8037L36.7927 43.5736C36.7915 42.7281 36.7754 41.9153 36.4903 41.1085C35.827 39.2318 34.0579 37.9344 32.0767 37.8894Z" fill="#EA161B"/>
<path d="M32.3153 23.8926C30.9529 24.248 31.0195 22.7346 31.0188 21.9277L31.0229 20.0331L29.1094 20.0335C28.7477 20.0338 28.3189 20.0836 27.9704 19.9915L27.9219 19.9775C27.4954 19.859 27.1304 19.4656 27.1262 19.0085C27.1164 17.9847 28.3134 18.0561 29.0247 18.056L31.018 18.0577L31.0202 16.074C31.0218 15.2698 30.8635 14.467 31.7993 14.1592L31.9375 14.1533C33.0954 14.1493 33.0084 15.1565 33.007 16.0116L33.0025 18.0363C33.1269 18.089 33.3889 18.0568 33.5327 18.0568L35.1474 18.0598C35.8648 18.0618 36.8999 18.0226 36.9378 19.0322C36.9778 20.1015 35.7597 20.0331 35.0718 20.0323L32.9969 20.0281L33.0018 21.689C33.0079 22.5057 33.2184 23.4831 32.3153 23.8926ZM17.1407 47.4381L14.5504 47.4383C12.4092 47.4368 11.1904 47.0678 11.1725 44.7245L11.1699 38.5717C11.1793 36.8466 11.9554 35.9267 13.81 35.9178L15.043 35.9142L18.4478 35.9112C20.6777 35.9126 21.0139 37.3607 21.0168 39.3038L21.0129 45.0675C21.0087 45.2767 21.0109 45.5196 20.9433 45.7198L20.9278 45.7633C20.484 47.0342 19.5874 47.4306 18.361 47.4367L17.1407 47.4381ZM13.7518 37.8992L13.1655 37.9071C13.1134 38.0913 13.1457 38.3665 13.1447 38.5631L13.1505 44.984C13.164 45.3491 13.172 45.422 13.5508 45.4565L18.5238 45.4698C18.683 45.4515 18.8652 45.4533 19.0167 45.4025C19.093 44.8228 19.0704 44.2337 19.0709 43.65L19.0719 39.2507C19.0718 37.8663 19.3515 37.9022 18.0543 37.9002L13.7518 37.8992ZM50.4142 47.4381L46.0417 47.438C45.5627 47.4371 44.9614 47.4882 44.5202 47.2786C42.8527 46.4865 42.9833 45.1987 42.9824 43.5472L42.9842 39.0625C42.9867 37.235 43.4593 36.0346 45.4778 35.9193L50.2772 35.9113C52.5347 35.9126 52.8183 37.3105 52.8203 39.2538L52.8189 45.0673C52.8034 46.4776 51.7754 47.3705 50.4142 47.4381ZM45.5308 37.894C45.3597 37.9002 45.1714 37.8968 45.0072 37.9472C44.8777 38.4362 44.932 39.0403 44.9313 39.5457L44.9339 44.0153C44.9368 45.4107 44.6177 45.4677 45.9865 45.4693L50.3737 45.4698L50.8195 45.4308C50.8867 45.0507 50.8675 44.6546 50.8683 44.2696L50.8533 37.941C50.6149 37.8895 50.3667 37.9021 50.124 37.901L45.5308 37.894Z" fill="#EA161B"/>
</svg>
