<svg width="64" height="64" viewBox="0 0 64 64" fill="none" xmlns="http://www.w3.org/2000/svg">
<path d="M53.3346 26.6666C53.3346 39.9813 38.564 53.8479 33.604 58.1306C33.1419 58.478 32.5794 58.6659 32.0013 58.6659C31.4232 58.6659 30.8607 58.478 30.3986 58.1306C25.4386 53.8479 10.668 39.9813 10.668 26.6666C10.668 21.0086 12.9156 15.5824 16.9164 11.5816C20.9171 7.58086 26.3434 5.33325 32.0013 5.33325C37.6593 5.33325 43.0855 7.58086 47.0862 11.5816C51.087 15.5824 53.3346 21.0086 53.3346 26.6666Z" stroke="#EA161B" stroke-width="4" stroke-linecap="round" stroke-linejoin="round"/>
<path d="M32 34.6667C36.4183 34.6667 40 31.085 40 26.6667C40 22.2485 36.4183 18.6667 32 18.6667C27.5817 18.6667 24 22.2485 24 26.6667C24 31.085 27.5817 34.6667 32 34.6667Z" stroke="#EA161B" stroke-width="4" stroke-linecap="round" stroke-linejoin="round"/>
</svg>
