<svg width="64" height="64" viewBox="0 0 64 64" fill="none" xmlns="http://www.w3.org/2000/svg">
<path d="M26.7108 12C28.3461 11.5744 30.0224 11.3263 31.7108 11.26V12.43C31.7108 12.6952 31.8162 12.9496 32.0037 13.1371C32.1913 13.3246 32.4456 13.43 32.7108 13.43C32.976 13.43 33.2304 13.3246 33.4179 13.1371C33.6055 12.9496 33.7108 12.6952 33.7108 12.43V11.21C37.2007 11.3571 40.6151 12.2722 43.7108 13.89L43.1108 14.89C42.9913 15.1185 42.9647 15.3844 43.0365 15.6321C43.1084 15.8799 43.2732 16.0902 43.4965 16.2193C43.7198 16.3484 43.9843 16.3862 44.2348 16.3248C44.4853 16.2634 44.7025 16.1077 44.8408 15.89L45.4408 14.89C48.4053 16.7668 50.924 19.2684 52.8208 22.22L51.7308 22.85C51.5132 22.9884 51.3574 23.2055 51.296 23.456C51.2347 23.7065 51.2725 23.9711 51.4015 24.1944C51.5306 24.4177 51.741 24.5825 51.9887 24.6543C52.2364 24.7262 52.5023 24.6996 52.7308 24.58L53.8308 23.94C55.4964 27.0445 56.4495 30.4811 56.6208 34H55.2908C55.0256 34 54.7713 34.1054 54.5837 34.2929C54.3962 34.4804 54.2908 34.7348 54.2908 35C54.2908 35.2652 54.3962 35.5196 54.5837 35.7071C54.7713 35.8946 55.0256 36 55.2908 36H56.6208C56.4871 39.5281 55.5681 42.982 53.9308 46.11L52.7408 45.42C52.627 45.3476 52.4997 45.2991 52.3667 45.2772C52.2336 45.2553 52.0974 45.2605 51.9664 45.2926C51.8354 45.3247 51.7123 45.383 51.6044 45.4639C51.4965 45.5448 51.4061 45.6467 51.3386 45.7635C51.2711 45.8802 51.2279 46.0094 51.2117 46.1433C51.1954 46.2772 51.2064 46.413 51.244 46.5425C51.2815 46.6721 51.3449 46.7927 51.4303 46.897C51.5157 47.0014 51.6213 47.0875 51.7408 47.15L52.9308 47.83C51.0342 50.8136 48.5044 53.3434 45.5208 55.24L44.8208 54.03C44.6825 53.8123 44.4653 53.6566 44.2148 53.5952C43.9643 53.5338 43.6998 53.5716 43.4765 53.7007C43.2532 53.8298 43.0884 54.0401 43.0165 54.2879C42.9447 54.5356 42.9713 54.8015 43.0908 55.03L43.7908 56.24C40.6625 57.9045 37.2012 58.8476 33.6608 59V57.6C33.6608 57.3348 33.5555 57.0804 33.3679 56.8929C33.1804 56.7054 32.926 56.6 32.6608 56.6C32.3956 56.6 32.1413 56.7054 31.9537 56.8929C31.7662 57.0804 31.6608 57.3348 31.6608 57.6V59C29.9892 58.9302 28.3298 58.6821 26.7108 58.26C26.4611 58.2101 26.2018 58.2574 25.9858 58.3922C25.7698 58.5269 25.6133 58.739 25.5482 58.9852C25.4832 59.2313 25.5145 59.493 25.6357 59.7169C25.757 59.9408 25.9591 60.11 26.2008 60.19C31.6439 61.6186 37.4041 61.2355 42.61 59.0988C47.816 56.9621 52.1844 53.188 55.0543 48.3475C57.9243 43.507 59.1397 37.8634 58.5166 32.2706C57.8935 26.6778 55.4658 21.4402 51.6008 17.35L53.7008 15.25L54.5308 16.08C54.7182 16.2663 54.9716 16.3708 55.2358 16.3708C55.5 16.3708 55.7535 16.2663 55.9408 16.08L58.9408 13.08C59.1271 12.8926 59.2316 12.6392 59.2316 12.375C59.2316 12.1108 59.1271 11.8574 58.9408 11.67L55.7708 8.47C55.5835 8.28375 55.33 8.17921 55.0658 8.17921C54.8016 8.17921 54.5482 8.28375 54.3608 8.47L51.3608 11.47C51.1746 11.6574 51.07 11.9108 51.07 12.175C51.07 12.4392 51.1746 12.6926 51.3608 12.88L52.3008 13.82L50.1908 15.93C46.3117 12.3986 41.4496 10.1314 36.2508 9.43V8.43H38.9108C39.176 8.43 39.4304 8.32464 39.6179 8.13711C39.8055 7.94957 39.9108 7.69522 39.9108 7.43V4C39.9108 3.73478 39.8055 3.48043 39.6179 3.29289C39.4304 3.10536 39.176 3 38.9108 3H27.2108C26.9456 3 26.6913 3.10536 26.5037 3.29289C26.3162 3.48043 26.2108 3.73478 26.2108 4V7.47C26.2108 7.73522 26.3162 7.98957 26.5037 8.17711C26.6913 8.36464 26.9456 8.47 27.2108 8.47H29.8708V9.35C28.6331 9.47589 27.4065 9.69315 26.2008 10C25.9356 10.0676 25.7081 10.2378 25.5684 10.4732C25.4287 10.7086 25.3882 10.9898 25.4558 11.255C25.5235 11.5202 25.6937 11.7477 25.929 11.8874C26.1644 12.0271 26.4456 12.0676 26.7108 12ZM55.0608 10.64L56.8408 12.42L55.2408 14L53.4608 12.22L55.0608 10.64ZM28.2108 5H37.9008V6.47H28.2108V5ZM31.8708 8.47H34.2408V9.23C33.7408 9.23 33.2408 9.23 32.7308 9.23H31.8708V8.47Z" fill="#EA161B"/>
<path d="M19.08 19.0699H24.56C24.8252 19.0699 25.0796 18.9646 25.2671 18.7771C25.4546 18.5895 25.56 18.3352 25.56 18.0699C25.56 17.8047 25.4546 17.5504 25.2671 17.3628C25.0796 17.1753 24.8252 17.0699 24.56 17.0699H19.08C18.8148 17.0699 18.5604 17.1753 18.3729 17.3628C18.1854 17.5504 18.08 17.8047 18.08 18.0699C18.08 18.3352 18.1854 18.5895 18.3729 18.7771C18.5604 18.9646 18.8148 19.0699 19.08 19.0699ZM14.78 25.8799H24C24.2652 25.8799 24.5196 25.7746 24.7071 25.5871C24.8946 25.3995 25 25.1452 25 24.8799C25 24.6147 24.8946 24.3604 24.7071 24.1728C24.5196 23.9853 24.2652 23.8799 24 23.8799H14.78C14.5148 23.8799 14.2604 23.9853 14.0729 24.1728C13.8854 24.3604 13.78 24.6147 13.78 24.8799C13.78 25.1452 13.8854 25.3995 14.0729 25.5871C14.2604 25.7746 14.5148 25.8799 14.78 25.8799ZM10.57 32.6899H24.29C24.5552 32.6899 24.8096 32.5846 24.9971 32.3971C25.1846 32.2095 25.29 31.9552 25.29 31.6899C25.29 31.4247 25.1846 31.1704 24.9971 30.9828C24.8096 30.7953 24.5552 30.6899 24.29 30.6899H10.57C10.3048 30.6899 10.0504 30.7953 9.86289 30.9828C9.67536 31.1704 9.57 31.4247 9.57 31.6899C9.57 31.9552 9.67536 32.2095 9.86289 32.3971C10.0504 32.5846 10.3048 32.6899 10.57 32.6899ZM5.75 39.4899H24.57C24.8352 39.4899 25.0896 39.3846 25.2771 39.1971C25.4646 39.0095 25.57 38.7552 25.57 38.4899C25.57 38.2247 25.4646 37.9704 25.2771 37.7828C25.0896 37.5953 24.8352 37.4899 24.57 37.4899H5.75C5.48478 37.4899 5.23043 37.5953 5.04289 37.7828C4.85536 37.9704 4.75 38.2247 4.75 38.4899C4.75 38.7552 4.85536 39.0095 5.04289 39.1971C5.23043 39.3846 5.48478 39.4899 5.75 39.4899ZM24.58 45.2999C24.58 45.0347 24.4746 44.7804 24.2871 44.5928C24.0996 44.4053 23.8452 44.2999 23.58 44.2999H10.94C10.6748 44.2999 10.4204 44.4053 10.2329 44.5928C10.0454 44.7804 9.94 45.0347 9.94 45.2999C9.94 45.5652 10.0454 45.8195 10.2329 46.0071C10.4204 46.1946 10.6748 46.2999 10.94 46.2999H23.58C23.8452 46.2999 24.0996 46.1946 24.2871 46.0071C24.4746 45.8195 24.58 45.5652 24.58 45.2999ZM19.08 53.1099H24.56C24.8252 53.1099 25.0796 53.0046 25.2671 52.8171C25.4546 52.6295 25.56 52.3752 25.56 52.1099C25.56 51.8447 25.4546 51.5904 25.2671 51.4028C25.0796 51.2153 24.8252 51.1099 24.56 51.1099H19.08C18.8148 51.1099 18.5604 51.2153 18.3729 51.4028C18.1854 51.5904 18.08 51.8447 18.08 52.1099C18.08 52.3752 18.1854 52.6295 18.3729 52.8171C18.5604 53.0046 18.8148 53.1099 19.08 53.1099ZM32.69 38.5199C33.4565 38.52 34.2029 38.2747 34.82 37.8199L34.92 37.7299L45.18 27.8099C45.3499 27.6477 45.4572 27.4309 45.4832 27.1974C45.5092 26.964 45.4522 26.7288 45.3222 26.5332C45.1922 26.3376 44.9975 26.194 44.7721 26.1275C44.5468 26.0611 44.3053 26.0761 44.09 26.1699L31.78 31.4699L30.78 31.9099C30.7091 31.9384 30.642 31.9753 30.58 32.0199C29.9686 32.4697 29.5149 33.1012 29.2839 33.8242C29.0528 34.5472 29.0563 35.3248 29.2936 36.0457C29.531 36.7667 29.9902 37.3942 30.6055 37.8386C31.2209 38.2829 31.961 38.5214 32.72 38.5199H32.69ZM31.1 34.6799C31.1533 34.29 31.3492 33.9337 31.65 33.6799L39.86 30.1499L33.58 36.2299C33.3221 36.4052 33.0186 36.5012 32.7068 36.5063C32.395 36.5113 32.0885 36.4251 31.8251 36.2583C31.5616 36.0915 31.3526 35.8514 31.2238 35.5674C31.095 35.2835 31.052 34.968 31.1 34.6599V34.6799Z" fill="#EA161B"/>
</svg>
