<svg width="64" height="64" viewBox="0 0 64 64" fill="none" xmlns="http://www.w3.org/2000/svg">
<path d="M32.2203 54.7212L3.00691 54.7179C2.87633 54.7145 2.75544 54.7007 2.63511 54.646L2.59343 54.6259C1.64237 54.1772 1.94608 53.033 2.90048 52.8184C3.14484 52.7634 3.44292 52.7934 3.69408 52.7931L5.22449 52.7929L5.18143 34.2644C4.27839 34.5741 2.20009 34.6999 1.37468 34.3166C0.713123 34.0094 -0.0344071 33.2249 0.379878 32.4531C0.896459 31.4907 2.26861 30.4867 3.09063 29.7879L5.44446 27.805L12.1666 22.7991L16.5086 19.9082C18.0608 18.9825 20.1078 17.9129 21.8633 17.3841L21.8617 17.328C21.7281 11.923 26.7507 8.93255 31.6764 8.83464L31.8816 8.82239C36.5063 8.82005 41.6918 11.2896 42.1483 16.3974C42.1806 16.7574 42.1611 17.1377 42.1611 17.4999C42.3144 17.5842 42.4981 17.5991 42.6634 17.6581C46.7576 19.1186 49.9171 21.3392 53.3976 23.8866L58.4372 27.6904L62.1519 30.7857C62.8726 31.404 64.1006 32.299 63.6168 33.4004C62.9606 34.8945 60.1422 34.7235 58.8351 34.2701L58.8096 52.7791C58.9491 52.8182 59.1394 52.7937 59.2846 52.7935L60.4581 52.7921C60.6739 52.7921 60.9322 52.7663 61.1419 52.822C62.3284 53.1362 62.2004 54.663 60.9463 54.7104L32.2203 54.7212ZM32.0326 10.7739C28.2432 10.7825 23.7464 12.8312 23.8028 17.1719C23.8558 21.2554 27.5127 26.0161 30.7184 28.1841C31.1338 28.465 31.5556 28.7354 32.0321 28.8992C32.6627 28.705 33.2304 28.2736 33.7546 27.8809C36.9867 25.4586 41.3227 19.8341 40.0153 15.537C39.0089 12.2293 35.2154 10.7734 32.0326 10.7739ZM22.1326 19.3906C20.5278 20.0254 18.9529 20.765 17.4626 21.6379L11.9627 25.3661L3.54522 31.9531C3.25876 32.1864 2.89987 32.3947 2.64043 32.6535L4.27633 32.3979C8.70847 31.4969 12.8038 29.8917 16.8063 27.7881L19.6272 26.25L23.9269 23.5517C23.1859 22.6617 22.4539 20.699 22.2217 19.6087C22.2071 19.5399 22.2019 19.4115 22.1326 19.3906ZM41.8299 19.4509C41.6004 20.4426 41.2829 21.3469 40.8377 22.2642L40.1353 23.5975C41.7701 24.756 43.4807 25.7441 45.2281 26.7187C50.1898 29.4862 54.3958 31.2592 59.8969 32.4534L61.3708 32.735C60.7482 32.2899 60.1919 31.7635 59.6131 31.2641L57.2384 29.2801L51.4372 24.9106C49.1929 23.2999 46.9322 21.6907 44.4373 20.4846C43.5861 20.0731 42.7106 19.7844 41.8299 19.4509ZM24.9863 25.2391L19.8926 28.3399C17.1273 29.9071 14.2302 31.4235 11.236 32.5056L8.22451 33.4289C7.86732 33.5247 7.48654 33.5876 7.13621 33.696L7.18258 52.7679C7.29321 52.8519 23.8817 52.7844 25.2789 52.8019L25.2848 44.03C25.2856 42.9328 25.2718 41.9129 25.5701 40.8449C27.4042 34.2769 36.7739 34.3695 38.4814 41.0046L38.6447 41.8754L38.7359 52.7877H56.8421L56.8401 33.7374L56.5148 33.6602C56.2777 33.614 56.0422 33.5309 55.8102 33.4632L54.3607 33.0162C49.1817 31.3426 43.5743 28.2751 39.0607 25.2641C37.7829 27.0745 34.6368 30.3984 32.3727 30.8009C30.4174 31.1486 27.0154 27.8716 25.9023 26.4931L25.2668 25.6517C25.1719 25.5171 25.0911 25.3656 24.9863 25.2391ZM32.0757 37.8892C29.7859 37.9035 27.8362 39.546 27.3426 41.764C27.2102 42.3584 27.2401 42.9771 27.2399 43.5821L27.2379 52.7797L31.9937 52.7975L36.7986 52.8036L36.7917 43.5735C36.7906 42.728 36.7744 41.9152 36.4893 41.1084C35.8261 39.2317 34.0569 37.9342 32.0757 37.8892Z" fill="#EA161B"/>
<path d="M32.3153 23.8926C30.9529 24.248 31.0195 22.7346 31.0188 21.9277L31.0229 20.0331L29.1094 20.0335C28.7477 20.0338 28.3189 20.0836 27.9704 19.9915L27.9219 19.9775C27.4954 19.859 27.1304 19.4656 27.1262 19.0085C27.1164 17.9847 28.3134 18.0561 29.0247 18.056L31.018 18.0577L31.0202 16.074C31.0218 15.2698 30.8635 14.467 31.7993 14.1592L31.9375 14.1533C33.0954 14.1493 33.0084 15.1565 33.007 16.0116L33.0025 18.0363C33.1269 18.089 33.3889 18.0568 33.5327 18.0568L35.1474 18.0598C35.8648 18.0618 36.8999 18.0226 36.9378 19.0322C36.9778 20.1015 35.7597 20.0331 35.0718 20.0323L32.9969 20.0281L33.0018 21.689C33.0079 22.5057 33.2184 23.4831 32.3153 23.8926ZM17.1407 47.4381L14.5504 47.4383C12.4092 47.4368 11.1904 47.0678 11.1725 44.7245L11.1699 38.5717C11.1793 36.8466 11.9554 35.9267 13.81 35.9178L15.043 35.9142L18.4478 35.9112C20.6777 35.9126 21.0139 37.3607 21.0168 39.3038L21.0129 45.0675C21.0087 45.2767 21.0109 45.5196 20.9433 45.7198L20.9278 45.7633C20.484 47.0342 19.5874 47.4306 18.361 47.4367L17.1407 47.4381ZM13.7518 37.8992L13.1655 37.9071C13.1134 38.0913 13.1457 38.3665 13.1447 38.5631L13.1505 44.984C13.164 45.3491 13.172 45.422 13.5508 45.4565L18.5238 45.4698C18.683 45.4515 18.8652 45.4533 19.0167 45.4025C19.093 44.8228 19.0704 44.2337 19.0709 43.65L19.0719 39.2507C19.0718 37.8663 19.3515 37.9022 18.0543 37.9002L13.7518 37.8992ZM50.4142 47.4381L46.0417 47.438C45.5627 47.4371 44.9614 47.4882 44.5202 47.2786C42.8527 46.4865 42.9833 45.1987 42.9824 43.5472L42.9842 39.0625C42.9867 37.235 43.4593 36.0346 45.4778 35.9193L50.2772 35.9113C52.5347 35.9126 52.8183 37.3105 52.8203 39.2538L52.8189 45.0673C52.8034 46.4776 51.7754 47.3705 50.4142 47.4381ZM45.5308 37.894C45.3597 37.9002 45.1714 37.8968 45.0072 37.9472C44.8777 38.4362 44.932 39.0403 44.9313 39.5457L44.9339 44.0153C44.9368 45.4107 44.6177 45.4677 45.9865 45.4693L50.3737 45.4698L50.8195 45.4308C50.8867 45.0507 50.8675 44.6546 50.8683 44.2696L50.8533 37.941C50.6149 37.8895 50.3667 37.9021 50.124 37.901L45.5308 37.894Z" fill="#EA161B"/>
</svg>
