<svg width="64" height="64" viewBox="0 0 64 64" fill="none" xmlns="http://www.w3.org/2000/svg">
<g clip-path="url(#clip0_135_2680)">
<path d="M24.0258 12C25.2127 12.0007 26.3731 11.6494 27.3602 10.9905C28.3474 10.3316 29.117 9.39474 29.5716 8.29841C30.0263 7.20209 30.1456 5.99555 29.9144 4.83142C29.6832 3.66729 29.112 2.59787 28.273 1.75842C27.434 0.918978 26.3648 0.347225 25.2008 0.115486C24.0368 -0.116252 22.8302 0.00243443 21.7337 0.456534C20.6371 0.910633 19.6999 1.67974 19.0405 2.66658C18.3811 3.65342 18.0292 4.81364 18.0293 6.0005C18.0292 7.59119 18.6608 9.11681 19.7853 10.2419C20.9098 11.3669 22.4351 11.9993 24.0258 12ZM24.0258 2C24.817 1.99961 25.5905 2.23385 26.2486 2.67312C26.9066 3.11238 27.4196 3.73693 27.7227 4.46777C28.0258 5.19861 28.1053 6.00291 27.9512 6.77895C27.7971 7.55499 27.4164 8.26791 26.8571 8.82754C26.2978 9.38717 25.5851 9.76838 24.8092 9.92294C24.0333 10.0775 23.2289 9.99847 22.4979 9.69585C21.7668 9.39324 21.142 8.88063 20.7023 8.22285C20.2626 7.56508 20.0279 6.79169 20.0278 6.0005C20.0283 4.9401 20.4496 3.92324 21.1992 3.17319C21.9488 2.42314 22.9654 2.00119 24.0258 2Z" fill="#EA161B"/>
<path d="M52.5023 0.5H37.0143C36.2192 0.501059 35.457 0.817534 34.8949 1.37997C34.3328 1.94241 34.0169 2.70486 34.0163 3.5V16.5H31.8513C31.4453 14.7895 30.4639 13.2705 29.0713 12.1975C28.5023 12.6621 27.8721 13.0462 27.1983 13.339C28.9148 14.3725 30.0198 16.2015 30.0198 17.9005V20.5H22.9423C22.6771 20.5 22.4228 20.6054 22.2352 20.7929C22.0477 20.9804 21.9423 21.2348 21.9423 21.5C21.9423 21.7652 22.0477 22.0196 22.2352 22.2071C22.4228 22.3946 22.6771 22.5 22.9423 22.5H39.8363C39.9812 22.4766 40.1294 22.4849 40.2707 22.5244C40.412 22.5638 40.543 22.6335 40.6547 22.7286C40.7664 22.8237 40.8562 22.942 40.9177 23.0751C40.9792 23.2083 41.0111 23.3533 41.0111 23.5C41.0111 23.6467 40.9792 23.7917 40.9177 23.9249C40.8562 24.058 40.7664 24.1763 40.6547 24.2714C40.543 24.3665 40.412 24.4362 40.2707 24.4756C40.1294 24.5151 39.9812 24.5234 39.8363 24.5H20.0273C19.7621 24.5 19.5078 24.6054 19.3202 24.7929C19.1327 24.9804 19.0273 25.2348 19.0273 25.5C19.0273 25.7652 19.1327 26.0196 19.3202 26.2071C19.5078 26.3946 19.7621 26.5 20.0273 26.5H30.0198V37.435C29.9659 37.4804 29.8967 37.5036 29.8263 37.5H17.2228C17.1526 37.5035 17.0836 37.4803 17.0298 37.435V17.9C17.0298 16.05 18.3388 14.0465 20.3223 13.084C19.6693 12.7395 19.067 12.3066 18.5323 11.7975C17.4938 12.4504 16.6314 13.3484 16.021 14.4125C15.4105 15.4766 15.0707 16.6744 15.0313 17.9005V37.465C15.0357 37.791 15.1202 38.1108 15.2774 38.3964C15.4347 38.682 15.6597 38.9245 15.9328 39.1025L16.2123 46.6925L8.64633 61.4915C8.04033 62.6765 9.44083 64 10.5713 64H17.7063C18.9598 64 21.2938 64 21.2938 61.5965C21.3008 60.9421 21.0773 60.306 20.6623 59.7999C20.2473 59.2938 19.6675 58.9499 19.0243 58.8285L25.5173 48.9765C25.5913 48.8644 25.6418 48.7386 25.6658 48.6065L27.3418 39.5H29.8263C29.9078 39.4966 29.9891 39.489 30.0698 39.477L34.3893 58.4535C34.4255 58.6015 34.4963 58.7388 34.596 58.854C34.6956 58.9693 34.8211 59.0593 34.9623 59.1165C35.3272 59.2417 35.7265 59.2197 36.0753 59.055C36.7888 58.83 37.6928 58.7235 37.9653 59.4855C37.9896 59.553 38.0075 59.6227 38.0188 59.6935C37.8903 59.903 36.9898 60.1865 36.6048 60.3085L31.2503 61.998C31.2315 62.0011 31.2121 61.9985 31.1947 61.9907C31.1773 61.9829 31.1626 61.9701 31.1523 61.954L27.2328 49.998C27.2168 50.024 27.2028 50.052 27.1858 50.078L25.8303 52.1345L29.2623 62.6025C29.4549 63.1025 29.8267 63.5129 30.3053 63.7538C30.7839 63.9947 31.335 64.0488 31.8513 63.9055L37.2053 62.2155C38.2013 61.9015 39.3303 61.5455 39.8068 60.5855C39.936 60.309 40.0063 60.0086 40.0133 59.7035C40.0202 59.3984 39.9637 59.0951 39.8473 58.813C39.3063 57.298 37.9003 56.6275 36.1048 56.985L31.8428 38.262C31.9581 38.0121 32.0178 37.7402 32.0178 37.465V26.5H39.8363C40.4783 26.5085 41.1078 26.3218 41.6414 25.9647C42.1749 25.6076 42.5875 25.0968 42.8243 24.5H52.5023C53.2974 24.4988 54.0595 24.1823 54.6215 23.6199C55.1834 23.0574 55.4993 22.2951 55.4998 21.5V3.5C55.4993 2.70495 55.1834 1.94257 54.6215 1.38015C54.0595 0.817724 53.2974 0.501192 52.5023 0.5ZM23.7373 48.045L16.4403 59.117C16.3411 59.2677 16.2845 59.4425 16.2765 59.6228C16.2685 59.8031 16.3094 59.9822 16.395 60.141C16.4805 60.2999 16.6075 60.4327 16.7624 60.5253C16.9173 60.6179 17.0944 60.6669 17.2748 60.667H17.7058C18.7608 60.667 19.2958 60.98 19.2958 61.597C19.3019 61.6758 19.2909 61.7549 19.2633 61.829C19.0953 62 18.0858 62 17.7058 62H10.6308L18.1098 47.372C18.1877 47.2199 18.2252 47.0503 18.2188 46.8795L17.9473 39.5H25.3098L23.7373 48.045ZM37.0148 2.5H52.5028C52.7678 2.50053 53.0217 2.60609 53.209 2.79354C53.3963 2.98099 53.5016 3.23504 53.5018 3.5V6.5H36.0148V3.5C36.0151 3.23495 36.1205 2.98083 36.3078 2.79336C36.4952 2.6059 36.7498 2.5004 37.0148 2.5ZM34.0168 20.5H32.0183V18.5H34.0168V20.5ZM52.5028 22.5H42.8243C42.5875 21.9032 42.1749 21.3924 41.6414 21.0353C41.1078 20.6782 40.4783 20.4915 39.8363 20.5H36.0148V8.5H53.5013V21.5C53.5011 21.765 53.3958 22.019 53.2085 22.2065C53.0212 22.3939 52.7678 22.4995 52.5028 22.5Z" fill="#EA161B"/>
</g>
<defs>
<clipPath id="clip0_135_2680">
<rect width="64" height="64" fill="white"/>
</clipPath>
</defs>
</svg>
