<svg width="64" height="64" viewBox="0 0 64 64" fill="none" xmlns="http://www.w3.org/2000/svg">
<path d="M58.6678 45.1199V53.1199C58.6708 53.8626 58.5187 54.5977 58.2212 55.2782C57.9236 55.9587 57.4873 56.5695 56.94 57.0716C56.3927 57.5736 55.7467 57.9559 55.0431 58.1938C54.3396 58.4317 53.5941 58.5201 52.8545 58.4533C44.6487 57.5616 36.7665 54.7577 29.8411 50.2666C23.398 46.1724 17.9354 40.7097 13.8411 34.2666C9.3344 27.3098 6.52977 19.3893 5.65446 11.1466C5.58782 10.4092 5.67546 9.66596 5.91179 8.96426C6.14813 8.26257 6.52798 7.61777 7.02717 7.07092C7.52635 6.52407 8.13394 6.08716 8.81123 5.78799C9.48853 5.48883 10.2207 5.33396 10.9611 5.33327H18.9611C20.2553 5.32053 21.5099 5.77881 22.4912 6.62269C23.4724 7.46656 24.1133 8.63846 24.2945 9.91993C24.6321 12.4801 25.2583 14.9939 26.1611 17.4133C26.5199 18.3677 26.5976 19.405 26.3849 20.4023C26.1722 21.3995 25.6781 22.3149 24.9611 23.0399L21.5745 26.4266C25.3706 33.1027 30.8983 38.6305 37.5745 42.4266L40.9611 39.0399C41.6862 38.323 42.6015 37.8289 43.5988 37.6162C44.596 37.4035 45.6333 37.4812 46.5878 37.8399C49.0072 38.7427 51.521 39.3689 54.0811 39.7066C55.3765 39.8893 56.5595 40.5418 57.4052 41.5399C58.2509 42.538 58.7002 43.8121 58.6678 45.1199Z" stroke="#EA161B" stroke-width="4" stroke-linecap="round" stroke-linejoin="round"/>
</svg>
