<svg width="64" height="64" viewBox="0 0 64 64" fill="none" xmlns="http://www.w3.org/2000/svg">
<path d="M45.27 49.732L12.1009 49.7345C12.0179 49.9568 12.021 50.2828 11.9863 50.5223L11.696 52.3737L10.1468 59.5804C9.86654 60.7309 9.52234 61.7477 8.12403 61.7593C6.19933 61.7752 6.05906 60.2162 5.74967 58.7685L4.47016 51.045L4.38748 49.5904C4.37161 49.2283 4.22959 49.3554 3.93403 49.166C2.16393 48.0323 1.28439 46.1443 1.27932 44.0569C1.27547 42.4665 1.80191 41.4769 2.39783 40.0362C3.35844 37.7138 3.71104 35.9844 3.71521 33.5314L3.71731 31.1303C2.00377 31.1259 2.16383 30.3103 2.16481 28.9009L2.16373 17.6277C2.16468 8.47444 10.2123 1.93549 19.048 1.96338L19.9654 1.96191C24.6803 2.00259 29.375 4.23274 32.5905 7.63926C35.3134 10.5239 36.3377 13.0255 40.3804 14.7445C42.5493 15.6668 44.8527 16.1193 47.1574 16.5568L54.6465 17.9978C57.24 18.5283 61.12 19.3848 61.6424 22.5819C61.8633 23.9342 61.121 24.8578 59.7887 25.0395L59.8109 32.2169L59.9483 33.6833C60.1743 36.3277 60.6449 38.3537 61.7507 40.7488C62.2943 41.9265 62.6914 42.4918 62.6875 43.823C62.6817 45.8487 62.0507 47.7629 60.3088 48.9352C60.1449 49.0454 59.9479 49.1843 59.7592 49.2444C59.3259 49.3823 59.4477 49.4464 59.4348 49.8684C59.3725 51.9299 58.9797 54.2777 58.5629 56.2813L57.9385 58.9112C57.7793 59.562 57.7004 60.4064 57.279 60.9519C56.4295 62.052 54.4798 62.0424 53.9209 60.6444C53.6672 60.0097 53.5767 59.2477 53.4137 58.5803L52.4454 54.2118C52.1424 52.7354 51.8508 51.2409 51.6783 49.7432L45.27 49.732ZM18.9089 3.88926C11.5656 3.93948 4.70698 9.14238 4.13646 16.7013C4.09241 17.285 4.11571 17.8839 4.11572 18.4694L4.12211 28.5859C4.12298 28.6865 4.10444 29.0507 4.15634 29.1165L57.8325 29.095L57.8224 24.7243C54.4378 23.4132 50.9047 22.8437 47.3442 22.2354L42.8698 21.3869C41.1215 21.0322 39.3927 20.657 37.6865 20.128C34.0102 18.9083 31.1263 17.22 28.6323 14.281L27.9364 13.4685C27.7582 13.2597 27.5589 13.0399 27.4417 12.7888C27.0258 11.8979 27.9662 11.1158 28.7984 11.5085C29.2474 11.7204 29.471 12.2275 29.7514 12.6078C32.2337 15.9755 36.1642 17.7429 40.0977 18.7803L44.6814 19.7539L55.0044 21.7549L57.2633 22.4059C57.6209 22.5242 60.1668 23.6805 59.6327 22.498C58.6778 20.3848 54.4043 19.8755 52.409 19.5105L42.7775 17.5999C39.1983 16.6735 36.5107 15.2497 34.0583 12.3994L31.9729 9.87618C28.5867 5.98261 24.1834 3.76886 18.9089 3.88926ZM8.87007 31.0392L6.75892 31.0424C6.41787 31.043 6.04719 31.0143 5.70953 31.0558L5.70359 33.1545L54.7959 33.1539L57.958 33.1519L57.9493 31.7059C57.9478 31.49 57.9728 31.2428 57.9323 31.0334L8.87007 31.0392ZM5.56763 35.0695C5.44252 37.7 4.74463 39.4132 3.79144 41.8708C3.69221 42.1267 3.55169 42.7594 3.41326 42.9467C3.84316 42.9908 4.29437 42.9689 4.72721 42.9689L59.8749 42.969C60.1178 42.9684 60.3784 42.9864 60.6182 42.9508L60.6035 42.9244C59.5424 40.9602 58.379 37.5365 58.1993 35.4013C58.1935 35.3324 58.1955 35.0743 58.136 35.0624L56.7719 35.0772C56.7233 35.3973 56.7639 35.7747 56.7652 36.1034L56.7739 38.3187C56.7754 38.5868 56.8268 38.9103 56.7522 39.1679C56.4937 40.0603 55.4042 39.9603 54.9629 39.2959L54.9049 39.2083C54.7355 38.9435 54.8185 38.2394 54.8185 37.9274L54.8195 36.0402C54.8199 35.7215 54.8434 35.3842 54.8155 35.0675L53.2813 35.0715C53.1697 35.0719 52.9025 35.0385 52.8219 35.0928L52.8327 37.9444C52.8343 38.2835 52.8972 38.6822 52.8384 39.011C52.6184 40.2422 51.0412 39.9654 50.8748 39.0469C50.8455 38.8859 50.8607 38.7035 50.8615 38.5402L50.8912 35.0817L48.8443 35.0759C48.7925 35.16 48.8369 35.5335 48.839 35.6462L48.8529 38.1245C48.8537 38.4045 48.9114 38.8164 48.8395 39.0798C48.5064 40.3018 46.9085 40.042 46.9023 38.71L46.9019 35.0768L44.8655 35.1048C44.9229 35.7905 45.0143 38.3475 44.8972 39.044C44.6918 40.2657 42.9419 40.0209 42.9323 38.749V38.6015L42.9317 35.0759L40.9244 35.0757L40.9357 37.8887C40.9354 38.2577 40.9893 38.735 40.9138 39.0922C40.715 40.0338 38.9665 40.3162 38.9638 38.5649L38.9735 35.0685L37.5128 35.0723C37.3438 35.0729 37.1049 35.0395 36.9479 35.0912L36.9625 38.624C36.965 38.8262 36.9858 39.0269 36.9117 39.2188L36.8952 39.2634C36.5379 40.1823 35.0033 40.0915 35.001 38.6634L35.0123 35.0762L32.9682 35.0734L32.9828 37.8534C32.9837 38.2342 33.0349 38.6838 32.9803 39.0553C32.8357 40.0395 31.254 40.0453 31.0479 39.1272C30.984 38.8429 31.0362 38.4263 31.0364 38.1284L31.0439 35.4775C31.0453 35.0572 31.1493 35.0809 30.7255 35.0722L28.9835 35.0767C29.0727 35.9725 29.0332 36.9017 29.0333 37.8027C29.0334 38.4992 29.1639 39.7647 28.1719 39.8533C27.7499 39.891 27.0937 39.4747 27.0564 39.0202C27.0294 38.6915 27.054 38.341 27.0547 38.0103L27.0583 36.0299C27.0588 35.729 27.0977 35.3714 27.0482 35.0768L25.0157 35.0787L25.0557 37.9615C25.0585 38.5903 25.2047 39.7679 24.2213 39.8493C23.7413 39.889 23.4224 39.6012 23.1918 39.2188L23.1695 39.1845C23.023 38.9499 23.0965 38.3072 23.0963 38.0305L23.0968 35.7172C23.0969 35.5747 23.1407 35.1809 23.0784 35.0668L21.0717 35.0654L21.081 38.6794C21.0795 40.0739 19.7603 40.2408 19.2105 39.2188L19.1898 39.1823C19.0585 38.9382 19.1168 38.4423 19.1158 38.1687L19.1129 35.8159C19.1129 35.6208 19.1617 35.2553 19.1005 35.0774L17.0854 35.1357C17.1513 35.8729 17.2165 38.2245 17.1079 38.9807C16.9157 40.3188 15.1582 40.0455 15.1573 38.7758L15.1594 35.0689L13.108 35.1034C13.1507 35.4162 13.1445 35.7412 13.1483 36.0563L13.1563 37.5925C13.1573 38.039 13.2065 38.5513 13.1432 38.9913C12.9409 40.3944 11.1725 40.0319 11.1648 38.6719L11.1694 36.3305C11.1708 35.9293 11.1274 35.4557 11.2055 35.0648L9.75454 35.0699C9.56313 35.0707 9.3264 35.0415 9.14399 35.0854L9.17409 37.8629C9.17497 38.244 9.22749 38.7022 9.17057 39.0732C9.02691 40.0094 7.93943 40.1515 7.32716 39.2844L7.29954 39.2469C7.07019 38.9237 7.21407 38.1462 7.21374 37.7619L7.21583 35.0674L5.56763 35.0695ZM60.545 44.8567L3.29283 44.9347C3.57271 45.8502 3.53898 46.1217 4.26407 46.9673C4.79242 47.4843 5.32939 47.7544 6.06118 47.7923L56.7852 47.8037C58.8919 47.8014 60.2894 47.3167 60.6817 44.8907C60.6248 44.8578 60.6113 44.8573 60.545 44.8567ZM6.32679 49.7323C6.45284 51.8428 6.81516 53.9738 7.21068 56.0938L7.63664 58.3973C7.72657 58.828 7.77223 59.3915 7.96099 59.785L7.99424 59.8035C8.29872 59.4233 8.3824 58.6549 8.49172 58.1802L10.1689 49.7444L6.71894 49.7239C6.59241 49.7222 6.45011 49.7062 6.32679 49.7323ZM53.6205 49.7323L55.6242 59.7999C55.9547 59.357 56.0175 58.8174 56.1282 58.2882L57.5242 49.7334L53.6205 49.7323Z" fill="#EA161B"/>
</svg>
