<svg width="40" height="40" viewBox="0 0 40 40" fill="none" xmlns="http://www.w3.org/2000/svg">
<g clip-path="url(#clip0_135_2406)">
<path d="M23.8494 18.3063C23.8431 18.3063 23.8306 18.3063 23.8244 18.3063C23.6556 18.2938 23.5306 18.1438 23.5431 17.9751C23.6494 16.6563 23.1306 15.5626 22.5931 14.8063C21.8431 15.8813 20.7994 16.3563 19.4931 16.2188C18.2431 16.2188 17.3744 16.4501 16.9369 16.9126C16.6806 17.1813 16.5744 17.5313 16.5931 17.9813C16.5994 18.1501 16.4744 18.2938 16.2994 18.3063C16.1306 18.3063 15.9869 18.1876 15.9744 18.0126C15.9431 17.3938 16.1119 16.8751 16.4806 16.4876C17.0431 15.8938 18.0369 15.6063 19.5056 15.6063H19.5119C20.7494 15.7376 21.6494 15.2501 22.2869 14.1188C22.3369 14.0313 22.4244 13.9751 22.5306 13.9626C22.6306 13.9501 22.7306 13.9938 22.7931 14.0751C23.7869 15.2813 24.2556 16.6501 24.1431 18.0251C24.1431 18.1876 24.0056 18.3063 23.8494 18.3063ZM23.0244 20.4313C22.8869 20.4313 22.7619 20.3376 22.7244 20.2001C22.4994 19.3313 21.8681 18.9501 20.9056 19.0876C20.7369 19.1126 20.5806 18.9938 20.5556 18.8251C20.5306 18.6563 20.6494 18.5001 20.8181 18.4751C22.0806 18.2938 23.0181 18.8751 23.3244 20.0438C23.3681 20.2063 23.2681 20.3751 23.1056 20.4188C23.0744 20.4313 23.0494 20.4313 23.0244 20.4313ZM16.7244 20.4563C16.6931 20.4563 16.6556 20.4501 16.6244 20.4376C16.4619 20.3813 16.3744 20.2063 16.4306 20.0501C16.8431 18.8376 17.7869 18.2688 18.9619 18.5251C19.1306 18.5626 19.2306 18.7251 19.1994 18.8938C19.1619 19.0563 18.9994 19.1626 18.8306 19.1313C17.9556 18.9376 17.3244 19.3251 17.0119 20.2501C16.9744 20.3751 16.8556 20.4563 16.7244 20.4563Z" fill="#EA161B"/>
<path d="M17.8992 20.8563C17.443 20.8563 17.0742 20.4875 17.0742 20.0313C17.0742 19.575 17.443 19.2063 17.8992 19.2063C18.3555 19.2063 18.7242 19.575 18.7242 20.0313C18.718 20.4813 18.3492 20.8563 17.8992 20.8563ZM17.8992 19.8188C17.7867 19.8188 17.693 19.9125 17.693 20.025C17.693 20.1375 17.7867 20.2313 17.8992 20.2313C18.0117 20.2313 18.1055 20.1375 18.1055 20.025C18.1055 19.9125 18.0117 19.8188 17.8992 19.8188ZM21.8555 20.8563C21.3992 20.8563 21.0305 20.4875 21.0305 20.0313C21.0305 19.575 21.3992 19.2063 21.8555 19.2063C22.3117 19.2063 22.6805 19.575 22.6805 20.0313C22.6805 20.4813 22.3117 20.8563 21.8555 20.8563ZM21.8555 19.8188C21.743 19.8188 21.6492 19.9125 21.6492 20.025C21.6492 20.1375 21.743 20.2313 21.8555 20.2313C21.968 20.2313 22.0617 20.1375 22.0617 20.025C22.0617 19.9125 21.9742 19.8188 21.8555 19.8188Z" fill="#EA161B"/>
<path d="M20.0758 26.5938C16.7695 26.5938 14.082 23.9063 14.082 20.6001V17.9063C14.082 14.6001 16.7695 11.9126 20.0758 11.9126C23.382 11.9126 26.0695 14.6001 26.0695 17.9063V20.6001C26.0695 23.9063 23.3758 26.5938 20.0758 26.5938ZM20.0758 12.5313C17.1133 12.5313 14.7008 14.9438 14.7008 17.9063V20.6001C14.7008 23.5626 17.1133 25.9751 20.0758 25.9751C23.0383 25.9751 25.4508 23.5626 25.4508 20.6001V17.9063C25.4508 14.9438 23.0383 12.5313 20.0758 12.5313Z" fill="#EA161B"/>
<path d="M13.9188 21.2499C13.575 21.2499 13.2937 21.1624 13.0687 20.9937C12.775 20.7687 12.6125 20.4187 12.5875 19.9562C12.5875 19.5062 12.7188 19.1687 12.9813 18.9437C13.3 18.6687 13.7812 18.5812 14.4375 18.6749C14.6063 18.6999 14.7188 18.8562 14.7 19.0249C14.675 19.1937 14.525 19.3062 14.35 19.2874C13.8875 19.2187 13.5562 19.2624 13.3812 19.4124C13.2625 19.5187 13.2 19.6874 13.2 19.9374C13.2188 20.1999 13.3 20.3937 13.4437 20.5062C13.6687 20.6812 14.05 20.6437 14.3312 20.5874C14.5 20.5562 14.6625 20.6624 14.6937 20.8249C14.725 20.9937 14.6187 21.1562 14.4562 21.1874C14.2625 21.2312 14.0812 21.2499 13.9188 21.2499ZM26.1687 21.3187C26.0312 21.3187 25.8813 21.3062 25.7188 21.2874C25.55 21.2687 25.4313 21.1124 25.45 20.9437C25.4688 20.7749 25.625 20.6562 25.7937 20.6749C26.2625 20.7312 26.5813 20.6937 26.7438 20.5562C26.8188 20.4937 26.925 20.3687 26.95 20.0062C26.9437 19.7749 26.8813 19.5999 26.7563 19.4937C26.5813 19.3499 26.2563 19.3124 25.8063 19.3812C25.6375 19.4062 25.4812 19.2937 25.4562 19.1249C25.4312 18.9562 25.5437 18.7999 25.7125 18.7749C26.3562 18.6749 26.8312 18.7562 27.15 19.0249C27.4187 19.2499 27.5562 19.5812 27.5625 20.0249C27.5312 20.4999 27.3937 20.8187 27.1375 21.0312C26.9062 21.2249 26.5937 21.3187 26.1687 21.3187ZM27.9125 38.2249H12.0875C11.9187 38.2249 11.7812 38.0874 11.7812 37.9187V31.3749C11.7812 30.4374 12.1125 29.5687 12.7125 28.9374C13.2375 28.3937 13.9625 28.0999 14.7312 28.0999H17.4625V26.0999C17.4625 25.9312 17.6 25.7937 17.7688 25.7937C17.9375 25.7937 18.075 25.9312 18.075 26.0999V28.0999H25.5562C26.3625 28.0999 27.1063 28.4374 27.5938 29.0312C28.0125 29.5499 28.225 30.1999 28.225 30.8937V37.9187C28.2188 38.0874 28.0812 38.2249 27.9125 38.2249ZM12.3937 37.6124H27.6V30.8937C27.6 30.3374 27.4313 29.8249 27.125 29.4374C26.7375 28.9687 26.1688 28.7124 25.55 28.7124H14.725C14.125 28.7124 13.5562 28.9437 13.1687 29.3437C12.6625 29.8812 12.3875 30.5937 12.3875 31.3749V37.6124H12.3937Z" fill="#EA161B"/>
<path d="M18.1313 32.4251C18.075 32.4251 18.0125 32.4063 17.9625 32.3751C16.575 31.4626 15.5625 29.7938 15.5625 28.4063C15.5625 28.2376 15.7 28.1001 15.8687 28.1001C16.0375 28.1001 16.175 28.2376 16.175 28.4063C16.175 29.5188 16.9937 30.9063 18.1062 31.7251L22.075 28.2626V26.0938C22.075 25.9251 22.2125 25.7876 22.3813 25.7876C22.55 25.7876 22.6875 25.9251 22.6875 26.0938V28.4001C22.6875 28.4876 22.65 28.5751 22.5813 28.6313L18.325 32.3376C18.275 32.4001 18.2 32.4251 18.1313 32.4251Z" fill="#EA161B"/>
<path d="M22.0628 32.425C21.9941 32.425 21.9191 32.4 21.8628 32.35L17.5628 28.6438C17.4316 28.5313 17.4191 28.3375 17.5316 28.2125C17.6441 28.0813 17.8378 28.0688 17.9628 28.1813L22.0503 31.7063C23.4691 30.2813 24.1316 29.2125 24.0753 28.4375C24.0628 28.2688 24.1878 28.1188 24.3566 28.1063C24.5316 28.0875 24.6753 28.2188 24.6878 28.3875C24.7628 29.4 24.0003 30.6563 22.2753 32.3375C22.2191 32.3938 22.1441 32.425 22.0628 32.425Z" fill="#EA161B"/>
<path d="M20.0441 32.7563C19.3191 32.7563 18.6941 32.2938 18.5129 31.6126C18.4691 31.4501 18.5691 31.2813 18.7316 31.2376C18.8941 31.1938 19.0629 31.2938 19.1066 31.4563C19.2379 31.9563 19.7004 32.1626 20.0941 32.1438C20.2691 32.1376 20.8379 32.0563 20.9566 31.3751C20.9879 31.2063 21.1441 31.0938 21.3129 31.1251C21.4816 31.1563 21.5941 31.3126 21.5629 31.4813C21.4316 32.2251 20.8691 32.7251 20.1191 32.7626C20.0941 32.7501 20.0691 32.7563 20.0441 32.7563ZM15.2379 38.2251C15.0691 38.2251 14.9316 38.0876 14.9316 37.9188V33.7813C14.9316 33.6126 15.0691 33.4751 15.2379 33.4751C15.4066 33.4751 15.5441 33.6126 15.5441 33.7813V37.9188C15.5441 38.0876 15.4066 38.2251 15.2379 38.2251ZM24.9316 38.2251C24.7629 38.2251 24.6254 38.0876 24.6254 37.9188V33.7813C24.6254 33.6126 24.7629 33.4751 24.9316 33.4751C25.1004 33.4751 25.2379 33.6126 25.2379 33.7813V37.9188C25.2379 38.0876 25.1004 38.2251 24.9316 38.2251Z" fill="#EA161B"/>
<path d="M34.3431 39.9999H5.7181C4.91185 39.9999 4.24935 39.3437 4.24935 38.5312V16.7374C2.94935 16.9374 2.1931 16.4187 1.91185 15.8187C1.5306 15.0062 1.8931 13.9749 2.79935 13.2999L20.0056 0.0624226C20.1181 -0.0250774 20.2743 -0.0250774 20.3868 0.0686726L29.3181 7.35617V2.45617C29.3181 2.28742 29.4556 2.14992 29.6243 2.14992H35.4993C35.6681 2.14992 35.8056 2.28742 35.8056 2.45617V12.4312C37.4368 13.1374 38.3368 14.1499 38.2243 15.1562C38.1243 16.0562 37.2243 16.7437 35.8056 17.0249V38.5312C35.8118 39.3437 35.1493 39.9999 34.3431 39.9999ZM4.5556 16.0499C4.62435 16.0499 4.6931 16.0749 4.7431 16.1124C4.8181 16.1687 4.86185 16.2624 4.86185 16.3562V38.5312C4.86185 38.9999 5.2431 39.3812 5.71185 39.3812H34.3431C34.8118 39.3812 35.1931 38.9999 35.1931 38.5312V16.7749C35.1931 16.6249 35.3056 16.4937 35.4493 16.4687C36.7306 16.2624 37.5368 15.7499 37.6118 15.0874C37.6993 14.3374 36.8431 13.5062 35.3806 12.9187C35.2618 12.8687 35.1868 12.7562 35.1868 12.6312V2.76867H29.9368V8.00617C29.9368 8.12492 29.8681 8.23117 29.7618 8.28117C29.6556 8.33117 29.5306 8.31867 29.4368 8.24367L20.1868 0.699923L3.17435 13.7874C2.5056 14.2874 2.2181 15.0124 2.47435 15.5499C2.73685 16.1062 3.5056 16.2999 4.48685 16.0562C4.5056 16.0562 4.5306 16.0499 4.5556 16.0499Z" fill="#EA161B"/>
</g>
<defs>
<clipPath id="clip0_135_2406">
<rect width="40" height="40" fill="white"/>
</clipPath>
</defs>
</svg>
