<svg width="64" height="64" viewBox="0 0 64 64" fill="none" xmlns="http://www.w3.org/2000/svg">
    <path
        d="M31.002 17C31.002 14.7944 29.2075 13 27.002 13H25.002C22.7964 13 21.002 14.7944 21.002 17V20C21.002 22.2056 22.7964 24 25.002 24H27.002C29.2075 24 31.002 22.2056 31.002 20V17ZM29.002 20C29.002 21.103 28.105 22 27.002 22H25.002C23.8989 22 23.002 21.103 23.002 20V17C23.002 15.897 23.8989 15 25.002 15H27.002C28.105 15 29.002 15.897 29.002 17V20ZM37.002 24H39.002C41.2075 24 43.002 22.2056 43.002 20V17C43.002 14.7944 41.2075 13 39.002 13H37.002C34.7964 13 33.002 14.7944 33.002 17V20C33.002 22.2056 34.7964 24 37.002 24ZM35.002 17C35.002 15.897 35.8989 15 37.002 15H39.002C40.105 15 41.002 15.897 41.002 17V20C41.002 21.103 40.105 22 39.002 22H37.002C35.8989 22 35.002 21.103 35.002 20V17ZM19.002 17C19.002 14.7944 17.2075 13 15.002 13H13.002C10.7964 13 9.00195 14.7944 9.00195 17V20C9.00195 22.2056 10.7964 24 13.002 24H15.002C17.2075 24 19.002 22.2056 19.002 20V17ZM17.002 20C17.002 21.103 16.105 22 15.002 22H13.002C11.8989 22 11.002 21.103 11.002 20V17C11.002 15.897 11.8989 15 13.002 15H15.002C16.105 15 17.002 15.897 17.002 17V20ZM27.002 26H25.002C22.7964 26 21.002 27.7944 21.002 30V33C21.002 35.2056 22.7964 37 25.002 37H27.002C29.2075 37 31.002 35.2056 31.002 33V30C31.002 27.7944 29.2075 26 27.002 26ZM29.002 33C29.002 34.103 28.105 35 27.002 35H25.002C23.8989 35 23.002 34.103 23.002 33V30C23.002 28.897 23.8989 28 25.002 28H27.002C28.105 28 29.002 28.897 29.002 30V33ZM33.002 33C33.002 35.2056 34.7964 37 37.002 37H39.002C41.2075 37 43.002 35.2056 43.002 33V30C43.002 27.7944 41.2075 26 39.002 26H37.002C34.7964 26 33.002 27.7944 33.002 30V33ZM35.002 30C35.002 28.897 35.8989 28 37.002 28H39.002C40.105 28 41.002 28.897 41.002 30V33C41.002 34.103 40.105 35 39.002 35H37.002C35.8989 35 35.002 34.103 35.002 33V30ZM15.002 26H13.002C10.7964 26 9.00195 27.7944 9.00195 30V33C9.00195 35.2056 10.7964 37 13.002 37H15.002C17.2075 37 19.002 35.2056 19.002 33V30C19.002 27.7944 17.2075 26 15.002 26ZM17.002 33C17.002 34.103 16.105 35 15.002 35H13.002C11.8989 35 11.002 34.103 11.002 33V30C11.002 28.897 11.8989 28 13.002 28H15.002C16.105 28 17.002 28.897 17.002 30V33Z"
        fill="#EA161B" />
    <path
        d="M5.00294 61C5.00282 61 59.0028 61 59.0028 61C63.0626 60.8914 62.8937 54.8794 58.8185 55C59.0571 54.4617 58.9984 53.5862 59.0028 53C59.0028 51.3457 57.6571 50 56.0028 50H53.8185C54.2402 48.5408 54.1268 46.4882 52.7573 45.5776L55.8158 43.8721C56.7303 43.3613 57.3046 42.4321 57.3514 41.3857C57.3983 40.3398 56.91 39.3628 56.0448 38.7729L53.7609 37.2158L55.2531 35.0272C56.4517 35.3677 57.8076 34.8583 58.496 33.8213L61.3124 29.6904C62.2484 28.3769 61.8751 26.4025 60.5243 25.5215C59.1576 24.5898 57.288 24.9443 56.3553 26.31L53.5385 30.4414C52.8217 31.4596 52.8504 32.9105 53.6034 33.8963L52.1084 36.0891L49.8251 34.5322C48.0784 33.2577 45.3837 34.4558 45.162 36.608C45.162 36.6079 44.0311 44.9478 44.0311 44.9478C44.0206 45.0256 44.0204 45.1027 44.0159 45.1802C42.0209 45.8247 41.6547 48.2081 42.1871 50H40.0028C38.3485 50 37.0028 51.3457 37.0028 53C37.0086 53.5874 36.9483 54.459 37.1871 55H32.4463C32.7909 54.4092 33.0028 53.7317 33.0028 53V43C33.0028 40.7944 31.2084 39 29.0028 39H23.0028C20.7972 39 19.0028 40.7944 19.0028 43V53C19.0028 53.7317 19.2147 54.4092 19.5593 55H7.00282V53H13.0028C15.2084 53 17.0028 51.2056 17.0028 49V43C17.0028 40.7944 15.2084 39 13.0028 39H7.00282V15C7.00282 12.7944 8.79725 11 11.0028 11H41.0028C43.2084 11 45.0028 12.7944 45.0028 15V32.5C45.0172 33.8038 46.983 33.8215 47.0028 32.4999C47.0028 32.5 47.0028 15 47.0028 15C47.0028 11.6914 44.3114 9 41.0028 9H39.0028V7C39.0028 4.79443 37.2084 3 35.0028 3H17.0028C14.7972 3 13.0028 4.79443 13.0028 7V9H11.0028C7.69423 9 5.00282 11.6914 5.00282 15V55C1.06361 55.0975 1.03346 60.8938 5.00294 61ZM55.1908 31.5684L58.0077 27.437C58.7483 26.3615 60.392 27.4781 59.66 28.5635C59.66 28.5635 56.8436 32.6943 56.8436 32.6943C56.1049 33.7723 54.4573 32.6517 55.1908 31.5684ZM15.0028 7C15.0028 5.89697 15.8998 5 17.0028 5H35.0028C36.1058 5 37.0028 5.89697 37.0028 7V9H15.0028V7ZM7.00282 41H10.0028V48C10.0028 48.5522 10.4506 49 11.0028 49C11.5551 49 12.0028 48.5522 12.0028 48V41H13.0028C14.1058 41 15.0028 41.897 15.0028 43V49C15.0028 50.103 14.1058 51 13.0028 51H7.00282V41ZM56.0028 52C56.5541 52 57.0028 52.4487 57.0028 53V54C57.0028 54.5513 56.5541 55 56.0028 55H50.0028C49.4515 55 49.0028 54.5513 49.0028 54V53C49.0028 52.4487 49.4515 52 50.0028 52H56.0028ZM46.0126 45.2163C46.0126 45.2163 47.1434 36.8765 47.1434 36.8765C47.3146 36.0349 48.0933 35.8082 48.6981 36.1846L54.9179 40.4253C55.3334 40.709 55.3612 41.1289 55.3534 41.2964C55.3461 41.4639 55.2811 41.8799 54.8417 42.125L47.4911 46.2241C46.8072 46.6397 45.8751 46.0054 46.0126 45.2163ZM44.0028 48C44.0028 47.6031 44.2398 47.2659 44.5758 47.1045C45.4266 48.3287 47.1749 48.7201 48.4647 47.9711C48.4647 47.9712 50.2064 47 50.2064 47H51.0028C51.5541 47 52.0028 47.4487 52.0028 48V49C52.0028 49.5513 51.5541 50 51.0028 50H45.0028C44.4516 50 44.0028 49.5513 44.0028 49L44.0028 48ZM39.0028 53C39.0028 52.4487 39.4515 52 40.0028 52H46.0028C46.5541 52 47.0028 52.4487 47.0028 53V54C47.0028 54.5513 46.5541 55 46.0028 55H40.0028C39.4515 55 39.0028 54.5513 39.0028 54V53ZM21.0028 43C21.0028 41.897 21.8998 41 23.0028 41H29.0028C30.1058 41 31.0028 41.897 31.0028 43V53C31.0028 54.103 30.1058 55 29.0028 55H23.0028C21.8998 55 21.0028 54.103 21.0028 53V43ZM5.00288 57C5.00282 57 59.0028 57 59.0028 57C60.296 57.0177 60.3337 58.9748 59.0028 59H5.00282C3.70961 58.9823 3.67195 57.0252 5.00288 57Z"
        fill="#EA161B" />
    <path
        d="M41.002 46.02C41.5543 46.02 42.002 45.5723 42.002 45.02V41H42.6822C43.993 40.9806 43.9988 39.0212 42.6822 39H39.002C36.7964 39 35.002 40.7944 35.002 43V49C34.9519 49.8947 35.3746 51.134 36.4586 50.7846C36.9805 50.6045 37.2574 50.0352 37.0772 49.5132C36.9303 49.6466 37.0284 43.1271 37.002 43C37.002 41.897 37.899 41 39.002 41H40.002V45.02C40.002 45.5723 40.4498 46.02 41.002 46.02Z"
        fill="#EA161B" />
</svg>