<svg width="64" height="64" viewBox="0 0 64 64" fill="none" xmlns="http://www.w3.org/2000/svg">
<path fill-rule="evenodd" clip-rule="evenodd" d="M22.6673 19.9999C25.6128 19.9999 28.0007 17.6121 28.0007 14.6666C28.0007 11.7211 25.6128 9.33325 22.6673 9.33325C19.7219 9.33325 17.334 11.7211 17.334 14.6666C17.334 17.6121 19.7219 19.9999 22.6673 19.9999ZM22.6673 17.3333C24.1401 17.3333 25.334 16.1394 25.334 14.6666C25.334 13.1938 24.1401 11.9999 22.6673 11.9999C21.1945 11.9999 20.0007 13.1938 20.0007 14.6666C20.0007 16.1394 21.1945 17.3333 22.6673 17.3333Z" fill="#EA161B"/>
<path d="M27.9995 50.6667V45.2382L30.6661 49.0477V50.6667C30.6661 52.8341 28.9399 54.6073 26.7732 54.6653C25.3467 54.7034 24.0709 53.989 23.3328 52.8787C22.5945 53.989 21.3188 54.7034 19.8923 54.6653C17.7256 54.6073 15.9994 52.8341 15.9994 50.6667V35.5227C15.2259 35.9395 14.3106 36.1054 13.3792 35.9338C11.2067 35.5334 9.77007 33.4475 10.1705 31.275C10.4819 29.5851 10.7975 28.1097 11.1948 26.8989C11.5866 25.7047 12.1818 24.3635 13.296 23.2883C14.5108 22.1159 15.9092 21.6667 17.104 21.4837C18.09 21.3326 19.189 21.333 20.0952 21.3333H20.1456L23.827 24.0001L20.1451 23.9999C19.1798 23.9997 18.2728 24.0023 17.5079 24.1195C16.655 24.2503 15.8398 24.5394 15.1478 25.2073C14.4882 25.8437 14.064 26.7078 13.7286 27.7302C13.391 28.759 13.1015 30.0843 12.793 31.7583C12.6595 32.4825 13.1384 33.1778 13.8626 33.3113C14.5867 33.4447 15.282 32.9658 15.4155 32.2417C15.6423 31.0113 15.8447 30.0541 16.0442 29.3037L18.666 29.6463V50.6667C18.666 51.3891 19.2415 51.9802 19.9638 51.9995C20.6859 52.0189 21.2922 51.4595 21.3308 50.7381L22.0495 37.3334H24.6162L25.3347 50.7381C25.3733 51.4595 25.9796 52.0189 26.7019 51.9995C27.424 51.9802 27.9995 51.3891 27.9995 50.6667Z" fill="#EA161B"/>
<path d="M23.8276 24.0001H25.3325C25.3489 24.0001 25.3661 24.0003 25.3823 24.0009L25.3919 24.0013L25.4015 24.0014C26.7265 24.0291 27.9172 24.4869 28.9103 25.2378L30.3148 22.9397C28.9737 21.9781 27.3464 21.3766 25.4663 21.3355C25.4221 21.3341 25.3779 21.3334 25.3335 21.3334L20.1463 21.3333L23.8276 24.0001ZM11.3333 35.9999C9.49239 35.9999 8 37.4923 8 39.3333V40.4045C8 41.1409 8.59696 41.7378 9.33333 41.7378C10.0697 41.7378 10.6667 41.1409 10.6667 40.4045V39.3333C10.6667 38.9651 10.9651 38.6666 11.3333 38.6666C11.7015 38.6666 12 38.9651 12 39.3333V51.9999C12 52.7363 12.597 53.3333 13.3333 53.3333C14.0697 53.3333 14.6667 52.7363 14.6667 51.9999V39.3333C14.6667 37.4923 13.1743 35.9999 11.3333 35.9999ZM49.3333 39.3333C49.3333 37.4923 50.8257 35.9999 52.6667 35.9999C54.5076 35.9999 56 37.4923 56 39.3333V51.9999C56 52.7363 55.4031 53.3333 54.6667 53.3333C53.9303 53.3333 53.3333 52.7363 53.3333 51.9999V39.3333C53.3333 38.9651 53.0348 38.6666 52.6667 38.6666C52.2985 38.6666 52 38.9651 52 39.3333V40.4045C52 41.1409 51.4031 41.7378 50.6667 41.7378C49.9303 41.7378 49.3333 41.1409 49.3333 40.4045V39.3333Z" fill="#EA161B"/>
<path fill-rule="evenodd" clip-rule="evenodd" d="M40.0002 19.4274C42.9457 19.4274 45.3336 17.1677 45.3336 14.3803C45.3336 11.5929 42.9457 9.33325 40.0002 9.33325C37.0546 9.33325 34.6669 11.5929 34.6669 14.3803C34.6669 17.1677 37.0546 19.4274 40.0002 19.4274ZM40.0002 16.9038C41.4729 16.9038 42.6669 15.7741 42.6669 14.3803C42.6669 12.9866 41.4729 11.8568 40.0002 11.8568C38.5274 11.8568 37.3336 12.9866 37.3336 14.3803C37.3336 15.7741 38.5274 16.9038 40.0002 16.9038ZM41.9718 21.9509C42.5456 21.951 43.5464 22.011 44.5952 22.5107C46.3696 23.3562 47.3822 24.7406 47.9837 25.9636L48.0938 26.1874C48.3032 26.6118 48.3605 26.7279 48.3905 26.8507C48.4018 26.8971 48.4093 26.9443 48.4196 27.0094C48.438 27.1264 48.4654 27.3011 48.5409 27.6315C48.7746 28.6547 48.7802 28.6807 48.9132 29.3275C49.0404 29.9459 49.2893 31.1563 49.9929 34.4719C50.4277 36.5217 49.0245 38.5168 46.8586 38.9284C46.5117 38.9943 46.1664 39.0155 45.8292 38.9963L47.1438 44.7833C47.3429 45.8669 46.7653 47.0498 45.5305 47.4666C44.3206 47.8748 42.1276 48.4479 39.3336 48.4479C36.5394 48.4479 34.3464 47.8748 33.1365 47.4666C31.9017 47.0498 31.3241 45.8667 31.5232 44.7833L32.2421 40.8715C31.9052 40.8906 31.5601 40.8694 31.2133 40.8035C29.0474 40.3919 27.6442 38.3967 28.079 36.3471C28.7824 33.0325 29.0313 31.8222 29.1585 31.2035C29.2916 30.5569 29.2973 30.5298 29.531 29.5066C29.7772 28.4287 30.1088 27.1335 30.684 25.9639C31.2854 24.7409 32.2981 23.3565 34.0725 22.511C35.1213 22.0111 36.1218 21.9513 36.6949 21.9511L41.3456 21.951L41.355 21.9511L41.9718 21.9509ZM41.9714 24.4745L41.3314 24.4747L41.3214 24.4745L36.6958 24.4746C36.3162 24.4749 35.7908 24.5175 35.2717 24.7649C34.2144 25.2687 33.5513 26.1143 33.1017 27.0287C32.6614 27.9241 32.3793 28.981 32.1374 30.0398C31.9077 31.0457 31.9045 31.0613 31.7793 31.6697L31.7762 31.6847C31.648 32.3083 31.3982 33.523 30.6936 36.8439C30.5486 37.5271 31.0164 38.1922 31.7384 38.3294C32.073 38.393 32.4044 38.3323 32.6785 38.1791L34.2602 29.947L36.8838 30.3985L36.0489 34.7444L36.081 34.7108L34.1654 45.1338C35.1964 45.4694 37.0224 45.9243 39.3336 45.9243C41.6446 45.9243 43.4708 45.4694 44.5016 45.1338L42.5852 34.7061L42.6138 34.7217L41.7832 30.3985L44.4068 29.947L45.4333 36.3255C45.6994 36.4629 46.0149 36.5149 46.3336 36.4542C47.0556 36.3171 47.5233 35.6521 47.3784 34.9687C46.6737 31.6481 46.424 30.4333 46.2957 29.8095L46.2926 29.7949C46.1674 29.1861 46.1644 29.1707 45.9345 28.1647C45.8358 27.733 45.8296 27.6133 45.8269 27.5622C45.8262 27.5487 45.8258 27.5401 45.824 27.5317C45.8206 27.5165 45.8126 27.5022 45.7904 27.462C45.7576 27.4029 45.6932 27.2871 45.566 27.0285C45.1164 26.1142 44.4533 25.2685 43.396 24.7646C42.8769 24.5173 42.3512 24.4745 41.9714 24.4745Z" fill="#EA161B"/>
<path d="M33.334 52.774V49.7097C35.0748 49.9365 36.677 50.0767 38.2434 50.1323L37.2521 53.3099C36.9706 54.212 36.0317 54.7817 35.0478 54.6472C34.064 54.5125 33.334 53.7147 33.334 52.774ZM41.4283 53.3481L40.3543 50.156C41.9647 50.1349 43.5865 50.024 45.334 49.8259V52.774C45.334 53.7071 44.6153 54.5009 43.6409 54.6441C42.6666 54.7875 41.7273 54.2372 41.4283 53.3481Z" fill="#EA161B"/>
</svg>
