<svg width="64" height="64" viewBox="0 0 64 64" fill="none" xmlns="http://www.w3.org/2000/svg">
<path d="M20.8004 21.6512H21.5044C21.8963 24.1534 23.1693 26.4332 25.0938 28.0797C27.0183 29.7262 29.4676 30.631 32.0004 30.631C34.5331 30.631 36.9824 29.7262 38.9069 28.0797C40.8314 26.4332 42.1044 24.1534 42.4964 21.6512H43.2004C43.8646 21.6512 44.5018 21.3877 44.9721 20.9186C45.4424 20.4495 45.7075 19.8131 45.7091 19.1488V16.64C45.7091 16.3005 45.5743 15.9749 45.3342 15.7349C45.0942 15.4948 44.7686 15.36 44.4291 15.36H42.6436V10.24C42.6461 9.33794 42.4707 8.44424 42.1274 7.61005C41.7842 6.77586 41.2798 6.01755 40.6431 5.37852C40.0065 4.73948 39.25 4.23227 38.4171 3.8859C37.5842 3.53954 36.6912 3.36082 35.7892 3.35999H28.2116C27.3098 3.36082 26.4171 3.53958 25.5845 3.88602C24.752 4.23247 23.996 4.73978 23.3598 5.3789C22.7237 6.01802 22.2199 6.77638 21.8773 7.61054C21.5348 8.44469 21.3602 9.33824 21.3636 10.24V15.36H19.5716C19.2321 15.36 18.9065 15.4948 18.6665 15.7349C18.4264 15.9749 18.2916 16.3005 18.2916 16.64V19.1488C18.2932 19.8131 18.5583 20.4495 19.0286 20.9186C19.4989 21.3877 20.1361 21.6512 20.8004 21.6512ZM32.0004 29.3632C29.5192 29.3581 27.1413 28.3698 25.3874 26.6148C23.6336 24.8597 22.6469 22.4811 22.6436 20V15.616C22.8804 15.1104 24.25 12.64 28.0004 12.64C30.6107 12.6609 33.1758 11.9587 35.4116 10.6112C37.048 12.3631 39.0929 13.6823 41.3635 14.4512V19.9872C41.3619 22.4711 40.3752 24.853 38.62 26.6106C36.8648 28.3682 34.4843 29.3581 32.0004 29.3632ZM44.4291 16.64V19.1488C44.4275 19.4736 44.2972 19.7845 44.067 20.0135C43.8367 20.2426 43.5251 20.3712 43.2004 20.3712H42.6436V16.64H44.4291ZM22.6692 10.24C22.6691 8.76267 23.2556 7.34577 24.2996 6.30055C25.3436 5.25533 26.7598 4.66728 28.2372 4.66559H35.7892C37.2671 4.66728 38.6839 5.25512 39.729 6.30016C40.774 7.3452 41.3619 8.76208 41.3635 10.24V13.12C39.3004 12.3263 37.4648 11.0359 36.0196 9.36319C35.915 9.23219 35.7633 9.14742 35.597 9.12708C35.4306 9.10674 35.263 9.15244 35.13 9.25439C33.0218 10.6627 30.5354 11.397 28.0004 11.36C27.0123 11.3188 26.0264 11.4823 25.1046 11.8402C24.1828 12.1982 23.3449 12.7428 22.6436 13.44L22.6692 10.24ZM19.5972 16.64H21.3891V20.3712H20.8004C20.4756 20.3712 20.164 20.2426 19.9337 20.0135C19.7035 19.7845 19.5732 19.4736 19.5716 19.1488L19.5972 16.64ZM8.00035 58.5472H23.8148C24.225 58.5489 24.618 58.7126 24.9081 59.0027C25.1981 59.2928 25.3619 59.6857 25.3636 60.096C25.3636 60.2657 25.431 60.4285 25.551 60.5485C25.671 60.6686 25.8338 60.736 26.0036 60.736H38.0036C38.1733 60.736 38.3361 60.6686 38.4561 60.5485C38.5761 60.4285 38.6436 60.2657 38.6436 60.096C38.6435 59.6863 38.8058 59.2933 39.0949 59.0031C39.384 58.7128 39.7763 58.5489 40.186 58.5472H56.0004C56.1701 58.5472 56.3329 58.4798 56.4529 58.3597C56.5729 58.2397 56.6404 58.0769 56.6404 57.9072V55.3472C56.6404 55.1774 56.5729 55.0147 56.4529 54.8946C56.3329 54.7746 56.1701 54.7072 56.0004 54.7072H54.6116C54.6213 54.6029 54.6213 54.4979 54.6116 54.3936V52.3072C54.6099 51.8862 54.4423 51.4828 54.1452 51.1844C53.8481 50.8861 53.4454 50.7169 53.0243 50.7136H52.6083V45.2032C52.6034 42.0756 51.3631 39.0766 49.1576 36.8591C46.9521 34.6416 43.9598 33.3851 40.8324 33.3632H36.9923C36.8983 33.363 36.8054 33.3836 36.7203 33.4234C36.6351 33.4632 36.5597 33.5213 36.4995 33.5936L32.0196 39.0016L27.5396 33.5936C27.4794 33.5213 27.404 33.4632 27.3188 33.4234C27.2337 33.3836 27.1408 33.363 27.0467 33.3632H23.1428C20.0225 33.3968 17.041 34.6583 14.8441 36.8744C12.6472 39.0904 11.4117 42.0827 11.4052 45.2032V50.7136H10.9956C10.5745 50.7169 10.1718 50.8861 9.87469 51.1844C9.57758 51.4828 9.41002 51.8862 9.40835 52.3072V54.4C9.39859 54.5043 9.39859 54.6093 9.40835 54.7136H8.00035C7.83061 54.7136 7.66783 54.781 7.5478 54.901C7.42778 55.0211 7.36035 55.1838 7.36035 55.3536V57.9136C7.36204 58.0822 7.43021 58.2434 7.55005 58.362C7.66989 58.4806 7.83172 58.5472 8.00035 58.5472ZM37.2996 34.6432H40.0708L38.234 42.9952L32.9732 39.8336L37.2996 34.6432ZM31.0276 39.8336L25.7668 42.9952L23.93 34.6432H26.7012L31.0276 39.8336ZM12.6404 45.2032C12.6476 42.5042 13.6861 39.9101 15.5433 37.9518C17.4005 35.9935 19.936 34.819 22.6308 34.6688L24.7043 44.16C24.7255 44.2598 24.7702 44.3532 24.8348 44.4322C24.8994 44.5113 24.9819 44.5737 25.0756 44.6144C25.1571 44.6467 25.2438 44.664 25.3316 44.6656C25.4464 44.6656 25.5592 44.6346 25.658 44.576L32.0004 40.7488L38.3428 44.5504C38.4415 44.609 38.5543 44.6399 38.6691 44.64C38.7569 44.6384 38.8436 44.6211 38.9251 44.5888C39.0158 44.5506 39.0965 44.4921 39.1608 44.4177C39.2252 44.3434 39.2716 44.2552 39.2964 44.16L41.3699 34.6944C44.0603 34.8443 46.5921 36.0152 48.4486 37.9681C50.3052 39.921 51.3466 42.5087 51.3604 45.2032V50.7136L36.0772 50.656C35.46 50.6539 34.8485 50.7745 34.2783 51.0107C33.7081 51.2469 33.1905 51.5941 32.7556 52.032C32.4628 52.3151 32.2088 52.6357 32.0004 52.9856C31.7958 52.6365 31.5462 52.3159 31.258 52.032C30.823 51.5941 30.3054 51.2469 29.7352 51.0107C29.165 50.7745 28.5536 50.6539 27.9364 50.656L12.6532 50.7136L12.6404 45.2032ZM10.6436 54.4V52.3072C10.6452 52.2245 10.6788 52.1457 10.7372 52.0872C10.7957 52.0288 10.8745 51.9952 10.9572 51.9936L27.9236 51.936C28.3745 51.9335 28.8215 52.0202 29.2388 52.1912C29.6561 52.3622 30.0354 52.6141 30.3549 52.9324C30.6743 53.2507 30.9277 53.6291 31.1002 54.0457C31.2728 54.4623 31.3612 54.909 31.3604 55.36C31.3604 55.5297 31.4278 55.6925 31.5478 55.8125C31.6678 55.9326 31.8306 56 32.0004 56C32.1701 56 32.3329 55.9326 32.4529 55.8125C32.5729 55.6925 32.6404 55.5297 32.6404 55.36C32.6395 54.9101 32.7275 54.4645 32.8993 54.0487C33.071 53.6329 33.3232 53.2551 33.6413 52.937C33.9595 52.6189 34.3372 52.3667 34.753 52.1949C35.1688 52.0231 35.6145 51.9351 36.0644 51.936L53.0372 51.9936C53.1198 51.9952 53.1986 52.0288 53.2571 52.0872C53.3155 52.1457 53.3491 52.2245 53.3507 52.3072V54.4C53.3507 54.4832 53.3177 54.5629 53.2589 54.6217C53.2001 54.6805 53.1203 54.7136 53.0372 54.7136H37.9972C37.4091 54.7142 36.8381 54.911 36.3744 55.2726C35.9108 55.6343 35.581 56.1402 35.4372 56.7104H28.5636C28.4197 56.1402 28.0899 55.6343 27.6263 55.2726C27.1626 54.911 26.5916 54.7142 26.0036 54.7136H10.9572C10.874 54.7136 10.7942 54.6805 10.7354 54.6217C10.6766 54.5629 10.6436 54.4832 10.6436 54.4ZM8.64035 56H26.0036C26.1817 56 26.3582 56.0351 26.5228 56.1033C26.6874 56.1715 26.837 56.2714 26.963 56.3974C27.0889 56.5234 27.1889 56.6729 27.2571 56.8376C27.3253 57.0022 27.3604 57.1786 27.3604 57.3568C27.3604 57.5265 27.4278 57.6893 27.5478 57.8093C27.6678 57.9294 27.8306 57.9968 28.0004 57.9968H36.0004C36.1701 57.9968 36.3329 57.9294 36.4529 57.8093C36.5729 57.6893 36.6404 57.5265 36.6404 57.3568C36.6404 57.1786 36.6754 57.0022 36.7436 56.8376C36.8118 56.6729 36.9118 56.5234 37.0377 56.3974C37.1637 56.2714 37.3133 56.1715 37.4779 56.1033C37.6425 56.0351 37.819 56 37.9972 56H55.3604V57.28H40.186C39.5479 57.2819 38.9291 57.499 38.4296 57.8962C37.9302 58.2934 37.5794 58.8475 37.434 59.4688H26.554C26.4072 58.847 26.0551 58.2928 25.5547 57.8956C25.0542 57.4985 24.4345 57.2816 23.7956 57.28H8.64035V56Z" fill="#EA161B"/>
<path d="M46.6623 47.36H41.3311V48.64H46.6623V47.36Z" fill="#EA161B"/>
</svg>
