<svg width="68" height="69" viewBox="0 0 68 69" fill="none" xmlns="http://www.w3.org/2000/svg">
<g clip-path="url(#clip0_2_810)">
<path d="M45.6875 33.4375H36.9918C36.8333 32.993 36.578 32.5894 36.2443 32.2557C35.9107 31.922 35.507 31.6667 35.0625 31.5082V18.5625C35.0625 18.2807 34.9506 18.0105 34.7513 17.8112C34.5521 17.6119 34.2818 17.5 34 17.5C33.7182 17.5 33.448 17.6119 33.2487 17.8112C33.0495 18.0105 32.9375 18.2807 32.9375 18.5625V31.5082C32.4304 31.6865 31.9767 31.9905 31.6189 32.3918C31.2612 32.793 31.011 33.2784 30.8917 33.8026C30.7725 34.3268 30.7881 34.8727 30.9371 35.3892C31.0861 35.9058 31.3637 36.3761 31.7438 36.7562C32.124 37.1363 32.5943 37.4139 33.1108 37.5629C33.6273 37.7119 34.1732 37.7275 34.6974 37.6083C35.2216 37.4891 35.707 37.2389 36.1083 36.8811C36.5095 36.5233 36.8135 36.0697 36.9918 35.5625H45.6875C45.9693 35.5625 46.2396 35.4506 46.4388 35.2513C46.6381 35.052 46.75 34.7818 46.75 34.5C46.75 34.2182 46.6381 33.948 46.4388 33.7487C46.2396 33.5494 45.9693 33.4375 45.6875 33.4375ZM34 35.5625C33.7899 35.5625 33.5844 35.5002 33.4097 35.3834C33.235 35.2667 33.0988 35.1007 33.0184 34.9066C32.938 34.7125 32.9169 34.4988 32.9579 34.2927C32.9989 34.0866 33.1001 33.8973 33.2487 33.7487C33.3973 33.6001 33.5866 33.4989 33.7927 33.4579C33.9988 33.4169 34.2125 33.438 34.4066 33.5184C34.6008 33.5988 34.7667 33.735 34.8835 33.9097C35.0002 34.0844 35.0625 34.2899 35.0625 34.5C35.0623 34.7817 34.9503 35.0519 34.7511 35.2511C34.5519 35.4503 34.2817 35.5623 34 35.5625ZM53.5801 15.036C53.5616 15.0142 53.5545 14.9868 53.5338 14.9662C53.5132 14.9455 53.4858 14.9384 53.464 14.9199C48.2964 9.76797 41.297 6.87499 34 6.87499C26.703 6.87499 19.7036 9.76797 14.536 14.9199C14.5142 14.9384 14.4868 14.9455 14.4662 14.9662C14.4456 14.9868 14.4384 15.0142 14.4199 15.036C9.26799 20.2036 6.37501 27.203 6.37501 34.5C6.37501 41.797 9.26799 48.7964 14.4199 53.964C14.4384 53.9858 14.4456 54.0132 14.4662 54.0338C14.4868 54.0544 14.5142 54.0616 14.536 54.0801C19.7036 59.232 26.703 62.125 34 62.125C41.297 62.125 48.2964 59.232 53.464 54.0801C53.4858 54.0616 53.5132 54.0544 53.5338 54.0338C53.5545 54.0132 53.5616 53.9858 53.5801 53.964C58.732 48.7964 61.625 41.797 61.625 34.5C61.625 27.203 58.732 20.2036 53.5801 15.036ZM52.7381 51.7357L50.5289 49.5265C50.329 49.3306 50.0599 49.2215 49.78 49.2229C49.5001 49.2243 49.232 49.3361 49.0341 49.534C48.8362 49.732 48.7244 50 48.723 50.2799C48.7216 50.5598 48.8307 50.829 49.0266 51.0289L51.2357 53.238C46.8118 57.3229 41.0789 59.7008 35.0625 59.9462V56.8125C35.0625 56.5307 34.9506 56.2605 34.7513 56.0612C34.5521 55.8619 34.2818 55.75 34 55.75C33.7182 55.75 33.448 55.8619 33.2487 56.0612C33.0495 56.2605 32.9375 56.5307 32.9375 56.8125V59.9462C26.9211 59.7008 21.1883 57.323 16.7644 53.2381L18.9735 51.0289C19.1694 50.829 19.2785 50.5599 19.2771 50.28C19.2757 50.0001 19.1639 49.732 18.966 49.5341C18.7681 49.3362 18.5 49.2244 18.2201 49.2229C17.9402 49.2215 17.6711 49.3306 17.4711 49.5266L15.2619 51.7357C11.177 47.3118 8.79925 41.5789 8.55384 35.5625H11.6875C11.9693 35.5625 12.2396 35.4506 12.4388 35.2513C12.6381 35.052 12.75 34.7818 12.75 34.5C12.75 34.2182 12.6381 33.948 12.4388 33.7487C12.2396 33.5494 11.9693 33.4375 11.6875 33.4375H8.55384C8.79925 27.4211 11.177 21.6882 15.2619 17.2643L17.4711 19.4735C17.671 19.6694 17.9401 19.7785 18.2201 19.7771C18.5 19.7757 18.768 19.6639 18.9659 19.466C19.1638 19.268 19.2757 19 19.2771 18.7201C19.2785 18.4402 19.1694 18.171 18.9735 17.9711L16.7644 15.7619C21.1883 11.677 26.9211 9.29923 32.9375 9.05383V12.1875C32.9375 12.4693 33.0495 12.7395 33.2487 12.9388C33.448 13.1381 33.7182 13.25 34 13.25C34.2818 13.25 34.5521 13.1381 34.7513 12.9388C34.9506 12.7395 35.0625 12.4693 35.0625 12.1875V9.05383C41.0789 9.29923 46.8118 11.677 51.2357 15.7619L49.0265 17.9711C48.9262 18.0694 48.8464 18.1865 48.7917 18.3159C48.737 18.4452 48.7084 18.5841 48.7077 18.7245C48.707 18.8649 48.7341 19.0041 48.7876 19.1339C48.841 19.2638 48.9196 19.3818 49.0189 19.4811C49.1182 19.5804 49.2362 19.659 49.366 19.7124C49.4959 19.7658 49.6351 19.7929 49.7755 19.7922C49.9159 19.7915 50.0548 19.763 50.1841 19.7083C50.3134 19.6535 50.4306 19.5737 50.5289 19.4734L52.7381 17.2643C56.823 21.6882 59.2008 27.4211 59.4462 33.4375H56.3125C56.0307 33.4375 55.7605 33.5494 55.5612 33.7487C55.362 33.948 55.25 34.2182 55.25 34.5C55.25 34.7818 55.362 35.052 55.5612 35.2513C55.7605 35.4506 56.0307 35.5625 56.3125 35.5625H59.4462C59.2008 41.5789 56.823 47.3118 52.7381 51.7357ZM34 0.5C27.2755 0.5 20.7019 2.49407 15.1106 6.23003C9.51936 9.966 5.16149 15.2761 2.58811 21.4888C0.0147316 27.7015 -0.658582 34.5377 0.653316 41.1331C1.96521 47.7284 5.2034 53.7866 9.95839 58.5416C14.7134 63.2966 20.7716 66.5348 27.3669 67.8467C33.9623 69.1586 40.7986 68.4853 47.0113 65.9119C53.2239 63.3385 58.534 58.9807 62.27 53.3894C66.006 47.7981 68 41.2246 68 34.5C67.9897 25.4858 64.4043 16.8438 58.0303 10.4698C51.6563 4.09575 43.0142 0.510309 34 0.5ZM34 66.375C27.6957 66.375 21.533 64.5056 16.2912 61.0031C11.0494 57.5006 6.9639 52.5224 4.55136 46.698C2.13881 40.8736 1.50758 34.4646 2.73748 28.2815C3.96739 22.0984 7.00319 16.4188 11.461 11.961C15.9188 7.50317 21.5984 4.46737 27.7815 3.23747C33.9647 2.00757 40.3737 2.6388 46.1981 5.05134C52.0224 7.46388 57.0006 11.5494 60.5031 16.7912C64.0056 22.033 65.875 28.1957 65.875 34.5C65.8655 42.9508 62.5041 51.0528 56.5285 57.0285C50.5528 63.0041 42.4509 66.3654 34 66.375Z" fill="#F4A261"/>
</g>
<defs>
<clipPath id="clip0_2_810">
<rect width="68" height="68" fill="white" transform="translate(0 0.5)"/>
</clipPath>
</defs>
</svg>
