<svg width="68" height="69" viewBox="0 0 68 69" fill="none" xmlns="http://www.w3.org/2000/svg">
<g clip-path="url(#clip0_2_816)">
<path d="M3.1875 9C2.90571 9 2.63546 9.11194 2.4362 9.3112C2.23694 9.51046 2.125 9.78071 2.125 10.0625V22.6255C2.12493 22.6326 2.12493 22.6397 2.125 22.6467C2.09879 22.8005 2.10673 22.958 2.14825 23.1083C2.18978 23.2586 2.26388 23.3979 2.36528 23.5164C2.46669 23.6348 2.59292 23.7295 2.73501 23.7937C2.87711 23.8578 3.03159 23.89 3.1875 23.8877H20.1833C20.46 23.8879 20.7258 23.78 20.9242 23.5871C21.1226 23.3943 21.238 23.1316 21.2458 22.855L21.2946 21.2527C21.2948 21.2428 21.2948 21.2329 21.2946 21.223L21.3074 18.8154L29.2315 25.9702L21.2712 33.1591L21.2798 30.7855C21.2799 30.7756 21.2799 30.7657 21.2798 30.7558L21.2458 29.162C21.2402 28.8839 21.1258 28.6191 20.9271 28.4244C20.7285 28.2297 20.4614 28.1207 20.1833 28.1208H3.1875C3.03159 28.1185 2.87711 28.1507 2.73501 28.2148C2.59292 28.279 2.46669 28.3737 2.36528 28.4921C2.26388 28.6106 2.18978 28.7499 2.14825 28.9002C2.10673 29.0505 2.09879 29.208 2.125 29.3617V40.875H1.0625C0.780707 40.875 0.510456 40.9869 0.311199 41.1862C0.111942 41.3855 0 41.6557 0 41.9375L0 46.1875C0 46.4693 0.111942 46.7395 0.311199 46.9388C0.510456 47.1381 0.780707 47.25 1.0625 47.25H6.72775C6.97659 47.2944 7.23309 47.2486 7.4512 47.1208C7.6693 46.9931 7.83472 46.7917 7.91775 46.553C8.43574 45.1104 9.33363 43.8344 10.5166 42.8597C10.6349 42.7938 10.7395 42.7058 10.8247 42.6005C12.3107 41.468 14.1309 40.8614 15.9991 40.8761C17.8674 40.8907 19.6778 41.5257 21.1459 42.6813C21.1916 42.7268 21.2414 42.768 21.2946 42.8045C22.5183 43.7939 23.4437 45.1032 23.9679 46.587C24.0598 46.8482 24.25 47.0632 24.4981 47.1863C24.7461 47.3093 25.0324 47.3307 25.296 47.2457C25.3101 47.2474 25.3243 47.2489 25.3385 47.25H41.7903C42.0391 47.2944 42.2956 47.2486 42.5137 47.1208C42.7318 46.9931 42.8972 46.7917 42.9803 46.553C43.565 44.8892 44.6528 43.4486 46.0928 42.4306C47.5328 41.4126 49.2539 40.8677 51.0174 40.8715C52.7809 40.8752 54.4996 41.4274 55.9353 42.4514C57.371 43.4755 58.4527 44.9208 59.0304 46.587C59.1214 46.847 59.31 47.0616 59.5562 47.1852C59.8024 47.3089 60.087 47.3322 60.35 47.25H66.9375C67.2193 47.25 67.4895 47.1381 67.6888 46.9388C67.8881 46.7395 68 46.4693 68 46.1875V41.9375C68 41.6557 67.8881 41.3855 67.6888 41.1862C67.4895 40.9869 67.2193 40.875 66.9375 40.875H65.875V24.9375C65.8749 24.7638 65.8323 24.5928 65.7508 24.4394C65.6693 24.2861 65.5514 24.155 65.4075 24.0578L54.4085 11.4905C54.3089 11.3759 54.1858 11.2839 54.0476 11.2209C53.9094 11.1578 53.7593 11.1251 53.6074 11.125H38.25V10.0625C38.25 9.78071 38.1381 9.51046 37.9388 9.3112C37.7395 9.11194 37.4693 9 37.1875 9H3.1875ZM4.25 11.125H36.125V40.875H22.2913C20.4603 39.4972 18.231 38.7521 15.9396 38.7521C13.6482 38.7521 11.4189 39.4972 9.588 40.875H4.25V36.625H7.65C7.93179 36.625 8.20204 36.5131 8.4013 36.3138C8.60056 36.1145 8.7125 35.8443 8.7125 35.5625C8.7125 35.2807 8.60056 35.0105 8.4013 34.8112C8.20204 34.6119 7.93179 34.5 7.65 34.5H4.25V30.2458H19.142L19.1548 30.7855L19.1335 35.554C19.1323 35.7598 19.1909 35.9615 19.3021 36.1346C19.4134 36.3078 19.5726 36.4449 19.7603 36.5293C19.948 36.6137 20.1561 36.6417 20.3595 36.6101C20.5628 36.5784 20.7526 36.4884 20.9058 36.3509L31.5308 26.7586C31.641 26.659 31.7291 26.5374 31.7895 26.4016C31.8498 26.2658 31.881 26.1188 31.881 25.9702C31.881 25.8217 31.8498 25.6747 31.7895 25.5389C31.7291 25.4031 31.641 25.2815 31.5308 25.1819L20.9631 15.6449C20.8577 15.5502 20.7344 15.4775 20.6005 15.4311C20.4665 15.3848 20.3247 15.3657 20.1833 15.375V15.3792C19.9152 15.397 19.6639 15.5155 19.4798 15.7111C19.2957 15.9066 19.1924 16.1647 19.1909 16.4333L19.1696 21.2017L19.1548 21.7627H4.25V11.125ZM38.25 13.25H53.125L62.4261 23.875H38.25V13.25ZM38.25 26H63.75V30.25H60.5625C60.2807 30.25 60.0105 30.3619 59.8112 30.5612C59.6119 30.7605 59.5 31.0307 59.5 31.3125V35.5625C59.5 35.8443 59.6119 36.1145 59.8112 36.3138C60.0105 36.5131 60.2807 36.625 60.5625 36.625H63.75V40.875H57.3537C55.5228 39.4972 53.2935 38.7521 51.0021 38.7521C48.7107 38.7521 46.4814 39.4972 44.6505 40.875C44.6307 40.8744 44.6108 40.8744 44.591 40.875H38.25V26ZM43.1842 29.1875C42.9025 29.2019 42.6379 29.3276 42.4488 29.537C42.2597 29.7464 42.1616 30.0224 42.1759 30.3042C42.1903 30.586 42.316 30.8505 42.5255 31.0396C42.7349 31.2287 43.0108 31.3269 43.2926 31.3125H48.0654C48.3472 31.3125 48.6174 31.2006 48.8167 31.0013C49.0159 30.802 49.1279 30.5318 49.1279 30.25C49.1279 29.9682 49.0159 29.698 48.8167 29.4987C48.6174 29.2994 48.3472 29.1875 48.0654 29.1875H43.2926C43.2572 29.1857 43.2196 29.1857 43.1842 29.1875ZM61.625 32.375H63.75V34.5H61.625V32.375ZM2.125 43H7.44175C6.953 43.6502 6.56413 44.3727 6.23475 45.125H2.125V43ZM15.9375 43C13.9663 43.0045 12.0772 43.7895 10.6834 45.1834C9.28952 46.5772 8.50449 48.4663 8.5 50.4375C8.5 54.5324 11.8426 57.875 15.9375 57.875C20.0324 57.875 23.375 54.5324 23.375 50.4375C23.375 46.3426 20.0324 43 15.9375 43ZM24.4375 43H37.026C37.1289 43.0152 37.2334 43.0152 37.3363 43H42.5043C42.0155 43.6502 41.6266 44.3727 41.2972 45.125H25.6445C25.3252 44.3726 24.9202 43.6596 24.4375 43ZM51 43C49.0288 43.0045 47.1397 43.7895 45.7459 45.1834C44.352 46.5772 43.567 48.4663 43.5625 50.4375C43.5625 54.5324 46.9051 57.875 51 57.875C55.0949 57.875 58.4375 54.5324 58.4375 50.4375C58.4375 46.3426 55.0949 43 51 43ZM59.5 43H65.875V45.125H60.707C60.3877 44.3726 59.9827 43.6596 59.5 43ZM15.9375 45.125C18.8849 45.125 21.25 47.4901 21.25 50.4375C21.25 53.3849 18.8849 55.75 15.9375 55.75C15.2392 55.7522 14.5474 55.6164 13.9018 55.3502C13.2563 55.084 12.6697 54.6928 12.176 54.199C11.6822 53.7052 11.291 53.1187 11.0248 52.4732C10.7586 51.8276 10.6228 51.1358 10.625 50.4375C10.625 47.4901 12.9901 45.125 15.9375 45.125ZM51 45.125C53.9474 45.125 56.3125 47.4901 56.3125 50.4375C56.3125 53.3849 53.9474 55.75 51 55.75C50.3017 55.7522 49.6099 55.6164 48.9643 55.3502C48.3188 55.084 47.7323 54.6928 47.2385 54.199C46.7447 53.7052 46.3535 53.1187 46.0873 52.4732C45.8211 51.8276 45.6853 51.1358 45.6875 50.4375C45.6875 47.4901 48.0526 45.125 51 45.125ZM15.9375 47.25C14.1908 47.25 12.75 48.6886 12.75 50.4375C12.75 52.1864 14.1908 53.625 15.9375 53.625C17.6842 53.625 19.125 52.1864 19.125 50.4375C19.125 48.6886 17.6842 47.25 15.9375 47.25ZM51 47.25C49.2511 47.25 47.8125 48.6886 47.8125 50.4375C47.8125 52.1864 49.2511 53.625 51 53.625C52.7489 53.625 54.1875 52.1864 54.1875 50.4375C54.1875 48.6886 52.7489 47.25 51 47.25ZM15.9375 49.375C16.5368 49.375 17 49.8382 17 50.4375C17 51.0368 16.5368 51.5 15.9375 51.5C15.7974 51.502 15.6584 51.4759 15.5285 51.4232C15.3987 51.3705 15.2808 51.2923 15.1817 51.1933C15.0827 51.0942 15.0045 50.9763 14.9518 50.8465C14.8991 50.7166 14.873 50.5776 14.875 50.4375C14.875 49.8382 15.3383 49.375 15.9375 49.375ZM51 49.375C51.5993 49.375 52.0625 49.8382 52.0625 50.4375C52.0625 51.0368 51.5993 51.5 51 51.5C50.8599 51.502 50.7209 51.4759 50.591 51.4232C50.4612 51.3705 50.3433 51.2923 50.2442 51.1933C50.1452 51.0942 50.067 50.9763 50.0143 50.8465C49.9616 50.7166 49.9355 50.5776 49.9375 50.4375C49.9375 49.8382 50.4007 49.375 51 49.375Z" fill="#F4A261"/>
</g>
<defs>
<clipPath id="clip0_2_816">
<rect width="68" height="68" fill="white" transform="translate(0 0.5)"/>
</clipPath>
</defs>
</svg>
