<svg width="68" height="69" viewBox="0 0 68 69" fill="none" xmlns="http://www.w3.org/2000/svg">
<path d="M64.8125 65.3125H58.225C57.5875 65.3125 57.1625 64.8875 57.1625 64.25V63.1875C57.1625 59.3625 60.1375 55.9625 63.9625 55.5375C64.3875 55.5375 64.8125 55.75 65.025 55.9625C65.6625 57.025 65.875 58.0875 65.875 59.3625V64.25C65.875 64.8875 65.45 65.3125 64.8125 65.3125ZM59.2875 63.1875H63.75V59.3625C63.75 58.725 63.5375 58.3 63.325 57.6625C60.9875 58.3 59.2875 60.6375 59.2875 63.1875ZM58.4375 29.1875C58.225 29.1875 58.0125 29.1875 57.8 28.975L51.6375 24.9375H39.3125C37.6125 24.9375 36.125 23.45 36.125 21.75V6.875C36.125 5.175 37.6125 3.6875 39.3125 3.6875H60.5625C62.2625 3.6875 63.75 5.175 63.75 6.875V21.75C63.75 23.45 62.2625 24.9375 60.5625 24.9375H59.5V28.125C59.5 28.55 59.2875 28.975 58.8625 28.975C58.8625 29.1875 58.65 29.1875 58.4375 29.1875ZM39.3125 5.8125C38.675 5.8125 38.25 6.2375 38.25 6.875V21.75C38.25 22.3875 38.675 22.8125 39.3125 22.8125H52.0625C52.275 22.8125 52.4875 22.8125 52.7 23.025L57.375 26.2125V23.875C57.375 23.2375 57.8 22.8125 58.4375 22.8125H60.5625C61.2 22.8125 61.625 22.3875 61.625 21.75V6.875C61.625 6.2375 61.2 5.8125 60.5625 5.8125H39.3125ZM9.5625 29.1875C9.35 29.1875 9.1375 29.1875 9.1375 28.975C8.7125 28.975 8.5 28.55 8.5 28.125V24.9375H7.4375C5.7375 24.9375 4.25 23.45 4.25 21.75V13.25C4.25 11.55 5.7375 10.0625 7.4375 10.0625H26.5625C28.2625 10.0625 29.75 11.55 29.75 13.25V21.75C29.75 23.45 28.2625 24.9375 26.5625 24.9375H16.15L9.9875 28.975C9.9875 29.1875 9.775 29.1875 9.5625 29.1875ZM7.4375 12.1875C6.8 12.1875 6.375 12.6125 6.375 13.25V21.75C6.375 22.3875 6.8 22.8125 7.4375 22.8125H9.5625C10.2 22.8125 10.625 23.2375 10.625 23.875V26.2125L15.3 23.025C15.5125 22.8125 15.725 22.8125 15.9375 22.8125H26.5625C27.2 22.8125 27.625 22.3875 27.625 21.75V13.25C27.625 12.6125 27.2 12.1875 26.5625 12.1875H7.4375ZM17 55.5375C15.3 55.5375 13.8125 54.9 12.9625 53.625C12.325 52.9875 12.1125 52.1375 12.1125 51.5V48.7375C12.1125 48.1 12.5375 47.675 13.175 47.675C13.8125 47.675 14.2375 48.1 14.2375 48.7375V51.5C14.2375 51.7125 14.45 52.1375 14.6625 52.35C15.3 52.9875 16.15 53.4125 17 53.4125C18.0625 53.4125 18.9125 52.9875 19.3375 52.35C19.55 52.1375 19.7625 51.7125 19.7625 51.5V48.7375C19.7625 48.1 20.1875 47.675 20.825 47.675C21.4625 47.675 21.8875 48.1 21.8875 48.7375V51.5C21.8875 52.1375 21.675 52.9875 21.0375 53.625C20.1875 54.9 18.7 55.5375 17 55.5375Z" fill="#F4A261"/>
<path d="M17 50.6499C12.325 50.6499 8.5 46.8249 8.5 42.1499V40.2374C8.5 39.5999 8.925 39.1749 9.5625 39.1749C10.2 39.1749 10.625 39.3874 10.625 40.0249V41.9374C10.625 45.5499 13.3875 48.3124 17 48.3124C20.6125 48.3124 23.375 45.5499 23.375 41.9374V40.0249C23.375 39.3874 23.8 38.9624 24.4375 38.9624C25.075 38.9624 25.5 39.3874 25.5 40.0249V41.9374C25.5 46.8249 21.675 50.6499 17 50.6499Z" fill="#F4A261"/>
<path d="M9.5625 41.5126H9.1375C8.925 41.3001 8.5 41.0876 8.5 40.6626L7.225 35.3501C7.0125 34.0751 7.225 32.8001 7.8625 31.9501C8.5 31.1001 9.5625 30.2501 10.8375 30.2501L18.9125 28.9751C20.1875 28.7626 21.4625 29.1876 22.525 30.0376C23.375 30.6751 23.8 31.5251 24.0125 32.5876C24.8625 32.8001 25.5 33.2251 25.925 33.8626C26.5625 34.7126 26.9875 35.9876 26.775 37.0501L25.5 40.8751C25.2875 41.3001 25.075 41.5126 24.8625 41.5126C24.4375 41.5126 24.225 41.5126 23.8 41.3001L21.25 39.1751C21.0375 38.9626 20.825 38.7501 20.4 38.7501H13.6C13.3875 38.7501 13.175 38.7501 12.9625 38.9626L10.2 41.0876C9.9875 41.3001 9.775 41.5126 9.5625 41.5126ZM13.6 36.6251H20.6125C21.4625 36.6251 22.1 36.8375 22.7375 37.2625L24.225 38.5376L25.075 36.2C25.075 35.775 25.075 35.3501 24.65 34.9251C24.225 34.5001 23.8 34.2876 23.375 34.2876C22.7375 34.2876 22.3125 33.8626 22.3125 33.2251C22.3125 32.3751 22.1 31.7376 21.4625 31.3126C21.0375 30.8876 20.1875 30.6751 19.55 30.8876L11.475 32.1626C10.8375 32.1626 10.2 32.5876 9.9875 33.2251C9.5625 33.6501 9.5625 34.2876 9.5625 34.9251L10.4125 38.5376L11.6875 37.4751C12.1125 36.8376 12.75 36.6251 13.6 36.6251ZM30.8125 65.3126H3.1875C2.55 65.3126 2.125 64.8876 2.125 64.2501V59.3626C2.125 56.6001 4.0375 54.05 6.5875 53.2L12.75 51.075C13.3875 50.8625 13.8125 51.2876 14.025 51.7126C14.2375 52.3501 13.8125 52.7751 13.3875 52.9876L7.225 55.1126C5.525 55.7501 4.25 57.4501 4.25 59.3626V63.1876H29.75V59.3626C29.75 57.4501 28.475 55.7501 26.775 55.1126L20.6125 52.9876C19.975 52.7751 19.7625 52.1376 19.975 51.7126C20.1875 51.0751 20.825 50.8625 21.25 51.075L27.4125 53.2C30.175 54.05 31.875 56.6001 31.875 59.3626V64.2501C31.875 64.8876 31.45 65.3126 30.8125 65.3126Z" fill="#F4A261"/>
<path d="M9.775 65.3125H3.1875C2.55 65.3125 2.125 64.8875 2.125 64.25V59.3625C2.125 58.0875 2.55 57.025 2.975 55.9625C3.1875 55.5375 3.6125 55.325 4.0375 55.5375C7.8625 55.9625 10.8375 59.3625 10.8375 63.1875V64.25C10.8375 64.8875 10.4125 65.3125 9.775 65.3125ZM4.25 63.1875H8.7125C8.7125 60.6375 7.0125 58.5125 4.4625 57.875C4.4625 58.3 4.25 58.725 4.25 59.3625V63.1875ZM30.8125 65.3125H24.225C23.5875 65.3125 23.1625 64.8875 23.1625 64.25V63.1875C23.1625 59.3625 26.1375 55.9625 29.9625 55.5375C30.3875 55.5375 30.8125 55.75 31.025 55.9625C31.6625 57.025 31.875 58.0875 31.875 59.3625V64.25C31.875 64.8875 31.45 65.3125 30.8125 65.3125ZM25.2875 63.1875H29.75V59.3625C29.75 58.725 29.5375 58.3 29.325 57.6625C26.9875 58.3 25.2875 60.6375 25.2875 63.1875ZM20.1875 20.6875H9.5625C8.925 20.6875 8.5 20.2625 8.5 19.625C8.5 18.9875 8.925 18.5625 9.5625 18.5625H20.1875C20.825 18.5625 21.25 18.9875 21.25 19.625C21.25 20.2625 20.825 20.6875 20.1875 20.6875ZM24.4375 16.4375H9.5625C8.925 16.4375 8.5 16.0125 8.5 15.375C8.5 14.7375 8.925 14.3125 9.5625 14.3125H24.4375C25.075 14.3125 25.5 14.7375 25.5 15.375C25.5 16.0125 25.075 16.4375 24.4375 16.4375ZM51 56.3875H50.575C50.15 56.175 46.1125 54.2625 46.1125 51.5V48.3125C46.1125 47.675 46.5375 47.25 47.175 47.25C47.8125 47.25 48.2375 47.675 48.2375 48.3125V51.5C48.2375 52.35 49.725 53.625 51 54.2625C52.275 53.625 53.7625 52.35 53.7625 51.5V48.3125C53.7625 47.675 54.1875 47.25 54.825 47.25C55.4625 47.25 55.8875 47.675 55.8875 48.3125V51.5C55.8875 54.2625 51.85 56.175 51.425 56.3875H51Z" fill="#F4A261"/>
<path d="M51 50.4375C47.3875 50.4375 44.625 47.675 44.625 44.0625V38.75C44.625 38.1125 45.05 37.6875 45.6875 37.6875C46.325 37.6875 46.75 38.1125 46.75 38.75V44.0625C46.75 46.4 48.6625 48.3125 51 48.3125C53.3375 48.3125 55.25 46.4 55.25 44.0625V38.75C55.25 38.1125 55.675 37.6875 56.3125 37.6875C56.95 37.6875 57.375 38.1125 57.375 38.75V44.0625C57.375 47.675 54.6125 50.4375 51 50.4375ZM64.8125 65.3125H37.1875C36.55 65.3125 36.125 64.8875 36.125 64.25V59.3625C36.125 56.6 38.0375 54.05 40.5875 53.2L46.75 51.075C47.3875 50.8625 47.8125 51.2875 48.025 51.7125C48.2375 52.1375 47.8125 52.775 47.3875 52.9875L41.225 55.1125C39.3125 55.75 38.25 57.45 38.25 59.3625V63.1875H63.75V59.3625C63.75 57.45 62.475 55.75 60.775 55.1125L54.6125 52.9875C53.975 52.775 53.7625 52.1375 53.975 51.7125C54.1875 51.075 54.825 50.8625 55.25 51.075L61.4125 53.2C64.175 54.05 65.875 56.6 65.875 59.3625V64.25C65.875 64.8875 65.45 65.3125 64.8125 65.3125Z" fill="#F4A261"/>
<path d="M64.8125 65.3125H58.225C57.5875 65.3125 57.1625 64.8875 57.1625 64.25V63.1875C57.1625 59.3625 60.1375 55.9625 63.9625 55.5375C64.3875 55.5375 64.8125 55.75 65.025 55.9625C65.6625 57.025 65.875 58.0875 65.875 59.3625V64.25C65.875 64.8875 65.45 65.3125 64.8125 65.3125ZM59.2875 63.1875H63.75V59.3625C63.75 58.725 63.5375 58.3 63.325 57.6625C60.9875 58.3 59.2875 60.6375 59.2875 63.1875ZM43.775 65.3125H37.1875C36.55 65.3125 36.125 64.8875 36.125 64.25V59.3625C36.125 58.0875 36.55 57.025 36.975 55.9625C37.1875 55.5375 37.6125 55.325 38.0375 55.5375C41.8625 55.9625 44.8375 59.3625 44.8375 63.1875V64.25C44.8375 64.8875 44.4125 65.3125 43.775 65.3125ZM38.25 63.1875H42.7125C42.7125 60.6375 41.0125 58.5125 38.4625 57.875C38.25 58.3 38.0375 58.9375 38.0375 59.575V63.1875H38.25ZM46.75 39.8125H45.6875C45.05 39.8125 44.625 39.3875 44.625 38.75C44.625 38.1125 45.05 37.6875 45.6875 37.6875H46.75C47.3875 37.6875 47.8125 37.2625 47.8125 36.625C47.8125 35.9875 48.2375 35.5625 48.875 35.5625C49.5125 35.5625 49.9375 35.9875 49.9375 36.625C49.9375 38.325 48.45 39.8125 46.75 39.8125ZM60.5625 46.1875C59.925 46.1875 59.5 45.7625 59.5 45.125V43C59.5 41.3 58.0125 39.8125 56.3125 39.8125H52.0625C51.425 39.8125 51 39.3875 51 38.75C51 38.1125 51.425 37.6875 52.0625 37.6875H56.3125C59.2875 37.6875 61.625 40.025 61.625 43V45.125C61.625 45.7625 61.2 46.1875 60.5625 46.1875Z" fill="#F4A261"/>
<path d="M55.25 39.8125H51C49.3 39.8125 47.8125 38.325 47.8125 36.625C47.8125 35.9875 48.2375 35.5625 48.875 35.5625C49.5125 35.5625 49.9375 35.9875 49.9375 36.625C49.9375 37.2625 50.3625 37.6875 51 37.6875H55.25C55.8875 37.6875 56.3125 38.1125 56.3125 38.75C56.3125 39.3875 55.8875 39.8125 55.25 39.8125ZM53.125 46.1875H52.0625C51.425 46.1875 51 45.7625 51 45.125C51 44.4875 51.425 44.0625 52.0625 44.0625H53.125C54.4 44.0625 55.25 43.2125 55.25 41.9375C55.25 41.3 55.675 40.875 56.3125 40.875C56.95 40.875 57.375 41.3 57.375 41.9375C57.375 44.275 55.4625 46.1875 53.125 46.1875Z" fill="#F4A261"/>
<path d="M54.825 51.5C54.6125 51.5 54.4 51.5 54.1875 51.2875C53.975 51.075 53.7625 50.8625 53.7625 50.4375V48.3125C53.7625 47.675 54.1875 47.25 54.825 47.25C55.4625 47.25 55.8875 47.675 55.8875 48.3125V49.375C56.7375 49.1625 57.375 49.1625 58.0125 48.95L58.4375 48.7375C58.8625 48.7375 59.2875 48.1 59.2875 47.675V39.8125C59.2875 35.1375 55.4625 31.3125 50.7875 31.3125C46.1125 31.3125 42.2875 35.1375 42.2875 39.8125V47.675C42.2875 48.1 42.7125 48.525 43.1375 48.7375L43.5625 48.95C44.2 49.1625 45.05 49.1625 45.6875 49.375V48.525C45.6875 47.8875 46.1125 47.4625 46.75 47.4625C47.3875 47.4625 47.8125 47.8875 47.8125 48.525V50.65C47.8125 50.8625 47.6 51.2875 47.3875 51.5H46.9625C45.6875 51.2875 44.4125 51.075 43.35 50.8625L42.925 50.65C41.4375 50.225 40.375 48.95 40.375 47.4625V39.6C40.375 33.65 45.05 28.975 51 28.975C56.95 28.975 61.625 33.65 61.625 39.6V47.4625C61.625 48.95 60.5625 50.225 59.075 50.65L58.65 50.8625C57.375 51.2875 56.3125 51.2875 54.825 51.5ZM49.9375 16.4375C49.3 16.4375 48.875 16.0125 48.875 15.375V14.7375C48.875 13.4625 49.5125 12.6125 50.3625 11.975C50.7875 11.975 51 11.55 51 11.125C51 10.4875 50.575 10.0625 49.9375 10.0625C49.3 10.0625 48.875 10.4875 48.875 11.125C48.875 11.7625 48.45 12.1875 47.8125 12.1875C47.175 12.1875 46.75 11.7625 46.75 11.125C46.75 9.425 48.2375 7.9375 49.9375 7.9375C51.6375 7.9375 53.125 9.425 53.125 11.125C53.125 12.4 52.4875 13.4625 51.425 13.8875C51.2125 14.1 51 14.525 51 14.7375V15.375C51 16.0125 50.575 16.4375 49.9375 16.4375ZM49.9375 20.6875C49.3 20.6875 48.875 20.2625 48.875 19.625C48.875 18.9875 49.3 18.5625 49.9375 18.5625C50.575 18.5625 51 18.9875 51 19.625C51 20.2625 50.575 20.6875 49.9375 20.6875Z" fill="#F4A261"/>
</svg>
