<svg width="28" height="28" viewBox="0 0 28 28" fill="none" xmlns="http://www.w3.org/2000/svg">
<path d="M23.3333 11.6666C23.3333 17.4918 16.8711 23.5584 14.7011 25.4321C14.499 25.5841 14.2529 25.6663 14 25.6663C13.747 25.6663 13.501 25.5841 13.2988 25.4321C11.1288 23.5584 4.66663 17.4918 4.66663 11.6666C4.66663 9.19123 5.64996 6.81726 7.4003 5.06692C9.15064 3.31658 11.5246 2.33325 14 2.33325C16.4753 2.33325 18.8493 3.31658 20.5996 5.06692C22.35 6.81726 23.3333 9.19123 23.3333 11.6666Z" stroke="white" stroke-width="2" stroke-linecap="round" stroke-linejoin="round"/>
<path d="M14 15.1667C15.933 15.1667 17.5 13.5997 17.5 11.6667C17.5 9.73375 15.933 8.16675 14 8.16675C12.067 8.16675 10.5 9.73375 10.5 11.6667C10.5 13.5997 12.067 15.1667 14 15.1667Z" stroke="white" stroke-width="2" stroke-linecap="round" stroke-linejoin="round"/>
</svg>
