<svg width="68" height="69" viewBox="0 0 68 69" fill="none" xmlns="http://www.w3.org/2000/svg">
<path fill-rule="evenodd" clip-rule="evenodd" d="M30.1111 8.98514C30.1055 8.9851 30.0998 8.9851 30.0941 8.98514C30.0584 8.99041 30.0229 8.99753 29.9879 9.00641C29.8987 9.02009 29.8115 9.04503 29.7286 9.08073L5.15939 19.5889C4.99558 19.6162 4.84047 19.6816 4.70651 19.7798C4.57255 19.878 4.46346 20.0062 4.38801 20.1541C4.3851 20.1612 4.38227 20.1683 4.37951 20.1754C4.25912 20.3958 4.22072 20.6517 4.27113 20.8978V52.5308C4.27132 52.5741 4.27416 52.6172 4.27964 52.6602C4.27956 52.6673 4.27956 52.6744 4.27964 52.6815C4.28319 52.7036 4.28744 52.7256 4.29239 52.7474C4.32298 52.9242 4.39787 53.0905 4.5101 53.2306C4.62232 53.3707 4.7682 53.4799 4.93413 53.5484L29.7286 64.1524C29.8471 64.2032 29.9738 64.2318 30.1026 64.2372C30.1182 64.2376 30.1338 64.2376 30.1494 64.2372C30.1508 64.2372 30.1522 64.2372 30.1536 64.2372C30.1643 64.2374 30.1749 64.2374 30.1855 64.2372C30.1997 64.2375 30.2138 64.2375 30.228 64.2372C30.25 64.2379 30.2719 64.2379 30.2939 64.2372C30.4021 64.2272 30.5082 64.2008 30.6084 64.1586L44.0936 58.3893C45.117 60.1678 46.5905 61.6457 48.3661 62.6741C50.1417 63.7025 52.1567 64.2452 54.2086 64.2478C60.6516 64.2478 65.8961 59.0033 65.8961 52.5603C65.8961 46.7527 61.6291 41.9353 56.068 41.0407V20.9722C56.1099 20.8161 56.1156 20.6524 56.0847 20.4937C56.0537 20.3349 55.987 20.1853 55.8895 20.0563C55.8077 19.9335 55.7012 19.8291 55.5768 19.7497C55.4524 19.6703 55.3129 19.6178 55.167 19.5954L30.6084 9.08929C30.5203 9.0507 30.4273 9.02428 30.3321 9.01069C30.3222 9.01055 30.3123 9.01055 30.3024 9.01069C30.2762 9.00972 30.25 9.00972 30.2238 9.01069C30.1862 9.0087 30.1486 9.0087 30.1111 9.01069V8.98514ZM30.1685 11.2016L35.379 13.4264L13.3003 22.8677C13.2801 22.877 13.2603 22.887 13.2408 22.8975L8.02601 20.6685L30.1685 11.2016ZM38.0841 14.5845L44.4018 17.2854L21.9108 26.9032C21.6957 26.9944 21.5167 27.1539 21.4015 27.3571C21.2862 27.5603 21.2412 27.796 21.2733 28.0274C21.2715 28.055 21.2708 28.0825 21.2711 28.1101V39.4747L18.9676 36.0195C18.824 35.8038 18.6065 35.6479 18.356 35.5814C18.1055 35.5148 17.8394 35.5421 17.6076 35.6581L14.8961 37.0117V24.4998L38.0841 14.5845ZM47.0984 18.4392L52.311 20.6685L30.1685 30.1394L24.9623 27.9104L47.0368 18.469C47.0583 18.4598 47.0796 18.4498 47.1005 18.4392H47.0984ZM6.39613 22.2856L12.7711 25.0098V38.7351C12.7713 38.916 12.8177 39.0939 12.9058 39.2519C12.994 39.4098 13.121 39.5427 13.2749 39.6379C13.4288 39.733 13.6044 39.7873 13.7851 39.7956C13.9658 39.8038 14.1456 39.7657 14.3075 39.6851L17.7181 37.9787L21.3901 43.4866C21.4886 43.6776 21.6426 43.8344 21.8319 43.9361C22.0212 44.0378 22.2369 44.0796 22.4505 44.0562C22.4877 44.0511 22.5246 44.044 22.561 44.0349C22.5723 44.0351 22.5837 44.0351 22.595 44.0349C22.6186 44.0287 22.642 44.0215 22.6651 44.0137C22.7658 43.9812 22.8611 43.9339 22.9478 43.8733C23.1075 43.7621 23.2335 43.6093 23.3122 43.4313C23.3909 43.2533 23.4192 43.057 23.394 42.864V29.5573L29.106 31.9988V61.5703L6.39613 51.8548V22.2918V22.2856ZM53.943 22.2856V40.8729C51.3499 40.936 48.8513 41.8591 46.84 43.4969C44.8286 45.1348 43.4185 47.3947 42.8314 49.9212L40.2134 51.0369L34.0169 53.6887C33.7576 53.7992 33.5529 54.0081 33.4477 54.2695C33.3425 54.531 33.3454 54.8235 33.4559 55.0827C33.5663 55.342 33.7753 55.5467 34.0367 55.6519C34.2981 55.7571 34.5906 55.7543 34.8499 55.6438L41.0464 52.9917L42.5296 52.3606C42.5296 52.4222 42.5211 52.4839 42.5211 52.5476C42.5211 53.9161 42.7719 55.2251 43.2054 56.4449L31.231 61.5662V31.9946L53.943 22.2856ZM54.2086 42.9831C59.502 42.9831 63.7711 47.2543 63.7711 52.5456C63.7711 57.8411 59.502 62.1081 54.2086 62.1081C52.9522 62.1103 51.7078 61.8644 50.5466 61.3846C49.3854 60.9048 48.3303 60.2007 47.4419 59.3123C46.5535 58.4239 45.8492 57.3687 45.3695 56.2075C44.8897 55.0463 44.6439 53.802 44.6461 52.5456C44.6461 47.2543 48.9153 42.9831 54.2086 42.9831ZM40.5959 46.708C40.4638 46.7144 40.3341 46.7456 40.2134 46.7996L34.0169 49.4514C33.8804 49.5002 33.7554 49.5764 33.6495 49.6753C33.5436 49.7742 33.459 49.8937 33.401 50.0265C33.343 50.1593 33.3128 50.3026 33.3122 50.4475C33.3116 50.5924 33.3406 50.7361 33.3975 50.8693C33.4544 51.0026 33.538 51.1226 33.6431 51.2224C33.7482 51.3221 33.8725 51.3994 34.0086 51.4493C34.1446 51.4993 34.2894 51.521 34.4341 51.5129C34.5788 51.5048 34.7203 51.4672 34.8499 51.4024L41.0464 48.7544C41.2792 48.6604 41.4713 48.4869 41.5884 48.2647C41.7055 48.0425 41.7401 47.7862 41.6861 47.541C41.6321 47.2957 41.493 47.0773 41.2934 46.9249C41.0938 46.7725 40.8467 46.6956 40.5959 46.708ZM60.5284 47.8024C60.2878 47.8017 60.054 47.8827 59.8654 48.032L51.6225 54.3219L48.8451 50.922C48.667 50.7036 48.4095 50.565 48.1291 50.5365C47.8488 50.508 47.5686 50.5919 47.3502 50.77C47.1318 50.9481 46.9931 51.2058 46.9646 51.4862C46.9361 51.7665 47.0202 52.0468 47.1983 52.2652L51.2783 57.2589L61.1553 49.7215C61.3356 49.589 61.4695 49.403 61.5379 49.19C61.6064 48.977 61.6058 48.7477 61.5363 48.535C61.4668 48.3223 61.332 48.1371 61.151 48.0056C60.97 47.874 60.7521 47.8029 60.5284 47.8024Z" fill="#F4A261"/>
</svg>
