<svg width="28" height="28" viewBox="0 0 28 28" fill="none" xmlns="http://www.w3.org/2000/svg">
<path d="M25.6676 19.74V23.24C25.669 23.5649 25.6024 23.8865 25.4722 24.1842C25.3421 24.4819 25.1512 24.7492 24.9117 24.9688C24.6723 25.1885 24.3896 25.3557 24.0819 25.4598C23.7741 25.5639 23.4479 25.6025 23.1243 25.5733C19.5343 25.1832 16.0858 23.9565 13.056 21.9916C10.2371 20.2004 7.84721 17.8105 6.05598 14.9916C4.08429 11.948 2.85726 8.4828 2.47431 4.87664C2.44516 4.55402 2.4835 4.22886 2.5869 3.92187C2.69029 3.61487 2.85648 3.33277 3.07487 3.09353C3.29327 2.85428 3.55909 2.66313 3.8554 2.53225C4.15172 2.40136 4.47204 2.33361 4.79598 2.3333H8.29598C8.86217 2.32773 9.41107 2.52823 9.84037 2.89743C10.2697 3.26662 10.5501 3.77933 10.6293 4.33997C10.777 5.46005 11.051 6.55982 11.446 7.6183C11.6029 8.03588 11.6369 8.4897 11.5439 8.926C11.4508 9.36229 11.2347 9.76277 10.921 10.08L9.43931 11.5616C11.1001 14.4824 13.5185 16.9008 16.4393 18.5616L17.921 17.08C18.2382 16.7663 18.6387 16.5501 19.075 16.4571C19.5112 16.364 19.9651 16.398 20.3826 16.555C21.4411 16.9499 22.5409 17.2239 23.661 17.3716C24.2277 17.4516 24.7453 17.737 25.1153 18.1737C25.4853 18.6104 25.6818 19.1678 25.6676 19.74Z" stroke="white" stroke-width="2" stroke-linecap="round" stroke-linejoin="round"/>
</svg>
